<svg xmlns="http://www.w3.org/2000/svg" xmlns:xlink="http://www.w3.org/1999/xlink" width="1080" zoomAndPan="magnify" viewBox="0 0 810 809.999993" height="1080" preserveAspectRatio="xMidYMid meet" version="1.0"><defs><clipPath id="id1"><path d="M 126.746094 126.746094 L 683.246094 126.746094 L 683.246094 683.246094 L 126.746094 683.246094 Z M 126.746094 126.746094 " clip-rule="nonzero"/></clipPath></defs><rect x="-81" width="972" fill="rgb(100%, 100%, 100%)" y="-80.999999" height="971.999992" fill-opacity="1"/><rect x="-81" width="972" fill="rgb(100%, 100%, 100%)" y="-80.999999" height="971.999992" fill-opacity="1"/><rect x="-81" width="972" fill="rgb(100%, 100%, 100%)" y="-80.999999" height="971.999992" fill-opacity="1"/><rect x="-81" width="972" fill="rgb(100%, 100%, 100%)" y="-80.999999" height="971.999992" fill-opacity="1"/><g clip-path="url(#id1)"><path fill="rgb(93.328857%, 52.549744%, 54.899597%)" d="M 621.414062 188.578125 L 620.175781 188.578125 C 615.230469 153.335938 589.878906 126.746094 559.578125 126.746094 C 529.28125 126.746094 503.929688 153.335938 498.984375 188.578125 L 466.210938 188.578125 C 460.644531 153.335938 435.292969 126.746094 404.996094 126.746094 C 374.078125 126.746094 349.347656 153.335938 344.398438 188.578125 L 311.628906 188.578125 C 306.0625 153.335938 281.328125 126.746094 250.414062 126.746094 C 219.496094 126.746094 194.761719 153.335938 189.816406 188.578125 L 188.578125 188.578125 C 154.570312 188.578125 126.746094 216.40625 126.746094 250.414062 L 126.746094 621.414062 C 126.746094 655.421875 154.570312 683.246094 188.578125 683.246094 L 621.414062 683.246094 C 655.421875 683.246094 683.246094 655.421875 683.246094 621.414062 L 683.246094 250.414062 C 683.246094 216.40625 655.421875 188.578125 621.414062 188.578125 Z M 559.578125 151.480469 C 576.894531 151.480469 591.113281 167.554688 595.441406 188.578125 L 523.714844 188.578125 C 528.042969 167.554688 542.265625 151.480469 559.578125 151.480469 Z M 404.996094 151.480469 C 422.308594 151.480469 436.53125 167.554688 440.859375 188.578125 L 369.132812 188.578125 C 373.460938 167.554688 387.683594 151.480469 404.996094 151.480469 Z M 250.414062 151.480469 C 267.726562 151.480469 281.949219 167.554688 286.277344 188.578125 L 214.550781 188.578125 C 218.878906 167.554688 233.097656 151.480469 250.414062 151.480469 Z M 658.511719 621.414062 C 658.511719 641.816406 641.816406 658.511719 621.414062 658.511719 L 188.578125 658.511719 C 168.175781 658.511719 151.480469 641.816406 151.480469 621.414062 L 151.480469 336.980469 L 658.511719 336.980469 Z M 658.511719 312.246094 L 151.480469 312.246094 L 151.480469 250.414062 C 151.480469 230.007812 168.175781 213.3125 188.578125 213.3125 L 286.277344 213.3125 C 281.949219 234.335938 267.726562 250.414062 250.414062 250.414062 C 243.609375 250.414062 238.046875 255.976562 238.046875 262.78125 C 238.046875 269.582031 243.609375 275.144531 250.414062 275.144531 C 281.328125 275.144531 306.0625 248.558594 311.007812 213.3125 L 440.859375 213.3125 C 436.53125 234.335938 422.308594 250.414062 404.996094 250.414062 C 398.195312 250.414062 392.628906 255.976562 392.628906 262.78125 C 392.628906 269.582031 398.195312 275.144531 404.996094 275.144531 C 435.292969 275.144531 460.644531 248.558594 465.59375 213.3125 L 595.441406 213.3125 C 591.113281 234.335938 576.894531 250.414062 559.578125 250.414062 C 552.777344 250.414062 547.210938 255.976562 547.210938 262.78125 C 547.210938 269.582031 552.777344 275.144531 559.578125 275.144531 C 589.878906 275.144531 615.230469 248.558594 620.175781 213.3125 L 621.414062 213.3125 C 641.816406 213.3125 658.511719 230.007812 658.511719 250.414062 Z M 658.511719 312.246094 " fill-opacity="1" fill-rule="nonzero"/></g><path fill="rgb(93.328857%, 52.549744%, 54.899597%)" d="M 225.679688 621.414062 L 584.3125 621.414062 C 604.71875 621.414062 621.414062 604.71875 621.414062 584.3125 L 621.414062 411.179688 C 621.414062 390.773438 604.71875 374.078125 584.3125 374.078125 L 225.679688 374.078125 C 205.273438 374.078125 188.578125 390.773438 188.578125 411.179688 L 188.578125 584.3125 C 188.578125 604.71875 205.273438 621.414062 225.679688 621.414062 Z M 485.378906 398.8125 L 584.3125 398.8125 C 591.113281 398.8125 596.679688 404.378906 596.679688 411.179688 L 596.679688 485.378906 L 485.378906 485.378906 Z M 485.378906 510.113281 L 596.679688 510.113281 L 596.679688 584.3125 C 596.679688 591.113281 591.113281 596.679688 584.3125 596.679688 L 485.378906 596.679688 Z M 349.347656 398.8125 L 460.644531 398.8125 L 460.644531 485.378906 L 349.347656 485.378906 Z M 349.347656 510.113281 L 460.644531 510.113281 L 460.644531 596.679688 L 349.347656 596.679688 Z M 213.3125 411.179688 C 213.3125 404.378906 218.878906 398.8125 225.679688 398.8125 L 324.613281 398.8125 L 324.613281 485.378906 L 213.3125 485.378906 Z M 213.3125 510.113281 L 324.613281 510.113281 L 324.613281 596.679688 L 225.679688 596.679688 C 218.878906 596.679688 213.3125 591.113281 213.3125 584.3125 Z M 213.3125 510.113281 " fill-opacity="1" fill-rule="nonzero"/></svg>