<svg xmlns="http://www.w3.org/2000/svg" xmlns:xlink="http://www.w3.org/1999/xlink" width="1080" zoomAndPan="magnify" viewBox="0 0 810 809.999993" height="1080" preserveAspectRatio="xMidYMid meet" version="1.0"><defs><clipPath id="id1"><path d="M 170 488 L 649 488 L 649 706.265625 L 170 706.265625 Z M 170 488 " clip-rule="nonzero"/></clipPath><clipPath id="id2"><path d="M 160 104.015625 L 632 104.015625 L 632 476 L 160 476 Z M 160 104.015625 " clip-rule="nonzero"/></clipPath></defs><rect x="-81" width="972" fill="rgb(100%, 100%, 100%)" y="-80.999999" height="971.999992" fill-opacity="1"/><rect x="-81" width="972" fill="rgb(100%, 100%, 100%)" y="-80.999999" height="971.999992" fill-opacity="1"/><rect x="-81" width="972" fill="rgb(100%, 100%, 100%)" y="-80.999999" height="971.999992" fill-opacity="1"/><rect x="-81" width="972" fill="rgb(100%, 100%, 100%)" y="-80.999999" height="971.999992" fill-opacity="1"/><g clip-path="url(#id1)"><path fill="rgb(93.328857%, 52.549744%, 54.899597%)" d="M 648.851562 528.703125 C 648.851562 523.554688 647.867188 518.503906 645.953125 513.796875 C 638.609375 495.136719 618.429688 484.789062 599.058594 489.777344 C 598.605469 489.898438 598.15625 490.039062 597.722656 490.21875 L 464.886719 544.964844 C 464.738281 543.898438 464.6875 542.824219 464.417969 541.769531 C 460.546875 526.242188 445.691406 515.996094 429.863281 518.023438 C 429.410156 518.082031 428.957031 518.171875 428.515625 518.285156 L 289.691406 555.480469 L 240.25 547.210938 L 240.25 515.554688 C 240.25 510.003906 235.757812 505.515625 230.222656 505.515625 L 180.257812 505.515625 C 174.722656 505.515625 170.226562 510.003906 170.226562 515.554688 L 170.226562 696.226562 C 170.226562 701.777344 174.722656 706.265625 180.257812 706.265625 L 230.222656 706.265625 C 235.757812 706.265625 240.25 701.777344 240.25 696.226562 L 240.25 676.152344 L 308.339844 676.152344 L 370.277344 699.488281 C 375.855469 701.597656 381.714844 702.652344 387.621094 702.652344 C 395.507812 702.652344 403.460938 700.765625 410.945312 696.949219 L 626.703125 564.6875 C 640.355469 557.902344 648.851562 544.109375 648.851562 528.703125 Z M 220.191406 686.191406 L 190.289062 686.191406 L 190.289062 525.589844 L 220.191406 525.589844 Z M 616.992188 547.140625 L 401.152344 679.445312 C 393.792969 683.179688 385.105469 683.632812 377.351562 680.710938 L 313.695312 656.71875 C 312.5625 656.289062 311.367188 656.078125 310.164062 656.078125 L 240.25 656.078125 L 240.25 567.558594 L 288.519531 575.636719 C 289.921875 575.867188 291.386719 575.808594 292.773438 575.425781 L 432.949219 537.867188 C 438.4375 537.453125 443.582031 541.117188 444.957031 546.617188 C 445.71875 549.691406 445.226562 552.863281 443.5625 555.5625 C 441.90625 558.242188 439.320312 560.078125 436.269531 560.773438 C 435.839844 560.871094 435.410156 560.992188 434.988281 561.152344 L 366.648438 586.449219 L 373.597656 605.269531 L 441.367188 580.195312 C 448.046875 578.546875 453.785156 574.753906 458.078125 569.484375 L 604.644531 509.078125 C 614.074219 507.019531 623.714844 512.089844 627.316406 521.234375 C 628.289062 523.644531 628.78125 526.152344 628.78125 528.703125 C 628.789062 536.429688 624.566406 543.335938 616.992188 547.140625 Z M 616.992188 547.140625 " fill-opacity="1" fill-rule="nonzero"/></g><path fill="rgb(93.328857%, 52.549744%, 54.899597%)" d="M 400.933594 344.914062 C 395.40625 344.914062 390.902344 340.417969 390.902344 334.878906 L 370.839844 334.878906 C 370.839844 347.945312 379.257812 358.988281 390.902344 363.144531 L 390.902344 375.027344 L 410.964844 375.027344 L 410.964844 363.144531 C 422.609375 358.988281 431.023438 347.945312 431.023438 334.878906 C 431.023438 318.277344 417.523438 304.765625 400.933594 304.765625 C 395.40625 304.765625 390.902344 300.269531 390.902344 294.726562 C 390.902344 289.1875 395.40625 284.691406 400.933594 284.691406 C 406.460938 284.691406 410.964844 289.1875 410.964844 294.726562 L 431.023438 294.726562 C 431.023438 281.660156 422.609375 270.617188 410.964844 266.460938 L 410.964844 254.578125 L 390.902344 254.578125 L 390.902344 266.460938 C 379.257812 270.617188 370.839844 281.660156 370.839844 294.726562 C 370.839844 311.328125 384.34375 324.839844 400.933594 324.839844 C 406.460938 324.839844 410.964844 329.335938 410.964844 334.878906 C 410.964844 340.417969 406.460938 344.914062 400.933594 344.914062 Z M 400.933594 344.914062 " fill-opacity="1" fill-rule="nonzero"/><path fill="rgb(93.328857%, 52.549744%, 54.899597%)" d="M 270.535156 214.429688 C 264.996094 214.429688 260.503906 218.914062 260.503906 224.464844 L 260.503906 405.140625 C 260.503906 410.691406 264.996094 415.179688 270.535156 415.179688 L 531.332031 415.179688 C 536.867188 415.179688 541.363281 410.691406 541.363281 405.140625 L 541.363281 224.464844 C 541.363281 218.914062 536.867188 214.429688 531.332031 214.429688 Z M 521.300781 395.101562 L 280.566406 395.101562 L 280.566406 234.503906 L 521.300781 234.503906 Z M 521.300781 395.101562 " fill-opacity="1" fill-rule="nonzero"/><g clip-path="url(#id2)"><path fill="rgb(93.328857%, 52.549744%, 54.899597%)" d="M 160.257812 434.160156 C 159.835938 438.0625 161.710938 441.847656 165.0625 443.863281 L 215.214844 473.976562 C 216.800781 474.921875 218.585938 475.402344 220.382812 475.402344 C 221.765625 475.402344 223.140625 475.121094 224.445312 474.539062 C 227.421875 473.226562 229.578125 470.535156 230.222656 467.332031 L 240.25 417.144531 C 240.953125 413.632812 239.738281 410.019531 237.050781 407.648438 C 234.382812 405.300781 230.632812 404.519531 227.242188 405.664062 L 205.246094 413 C 195.324219 388.195312 190.289062 361.980469 190.289062 334.878906 C 190.289062 218.652344 284.777344 124.089844 400.933594 124.089844 C 517.089844 124.089844 611.578125 218.652344 611.578125 334.878906 C 611.578125 380.058594 597.503906 423.128906 570.890625 459.421875 L 587.0625 471.308594 C 616.222656 431.527344 631.636719 384.363281 631.636719 334.878906 C 631.636719 207.574219 528.140625 104.015625 400.933594 104.015625 C 273.722656 104.015625 170.226562 207.574219 170.226562 334.878906 C 170.226562 364.148438 175.59375 392.503906 186.167969 419.363281 L 167.046875 425.738281 C 163.335938 426.972656 160.679688 430.265625 160.257812 434.160156 Z M 217.191406 430.164062 L 213.339844 449.425781 L 194.089844 437.871094 Z M 217.191406 430.164062 " fill-opacity="1" fill-rule="nonzero"/></g></svg>