<svg xmlns="http://www.w3.org/2000/svg" xmlns:xlink="http://www.w3.org/1999/xlink" width="1080" zoomAndPan="magnify" viewBox="0 0 810 809.999993" height="1080" preserveAspectRatio="xMidYMid meet" version="1.0"><defs><clipPath id="id1"><path d="M 109.351562 183.261719 L 700.351562 183.261719 L 700.351562 626.511719 L 109.351562 626.511719 Z M 109.351562 183.261719 " clip-rule="nonzero"/></clipPath></defs><rect x="-81" width="972" fill="rgb(100%, 100%, 100%)" y="-80.999999" height="971.999992" fill-opacity="1"/><rect x="-81" width="972" fill="rgb(100%, 100%, 100%)" y="-80.999999" height="971.999992" fill-opacity="1"/><rect x="-81" width="972" fill="rgb(100%, 100%, 100%)" y="-80.999999" height="971.999992" fill-opacity="1"/><rect x="-81" width="972" fill="rgb(100%, 100%, 100%)" y="-80.999999" height="971.999992" fill-opacity="1"/><g clip-path="url(#id1)"><path fill="rgb(93.328857%, 52.549744%, 54.899597%)" d="M 681.882812 598.808594 C 681.882812 603.894531 677.734375 608.042969 672.648438 608.042969 L 137.054688 608.042969 C 131.96875 608.042969 127.820312 603.894531 127.820312 598.808594 L 127.820312 257.136719 L 681.882812 257.136719 Z M 127.820312 210.96875 C 127.820312 205.878906 131.96875 201.734375 137.054688 201.734375 L 672.648438 201.734375 C 677.734375 201.734375 681.882812 205.878906 681.882812 210.96875 L 681.882812 238.667969 L 127.820312 238.667969 Z M 672.648438 183.265625 L 137.054688 183.265625 C 121.757812 183.265625 109.351562 195.671875 109.351562 210.96875 L 109.351562 598.808594 C 109.351562 614.101562 121.757812 626.511719 137.054688 626.511719 L 672.648438 626.511719 C 687.941406 626.511719 700.351562 614.101562 700.351562 598.808594 L 700.351562 210.96875 C 700.351562 195.671875 687.941406 183.265625 672.648438 183.265625 " fill-opacity="1" fill-rule="nonzero"/></g><path fill="rgb(93.328857%, 52.549744%, 54.899597%)" d="M 155.523438 210.96875 C 150.4375 210.96875 146.289062 215.113281 146.289062 220.203125 C 146.289062 225.289062 150.4375 229.4375 155.523438 229.4375 C 160.609375 229.4375 164.757812 225.289062 164.757812 220.203125 C 164.757812 215.113281 160.609375 210.96875 155.523438 210.96875 " fill-opacity="1" fill-rule="nonzero"/><path fill="rgb(93.328857%, 52.549744%, 54.899597%)" d="M 192.460938 210.96875 C 187.375 210.96875 183.226562 215.113281 183.226562 220.203125 C 183.226562 225.289062 187.375 229.4375 192.460938 229.4375 C 197.546875 229.4375 201.695312 225.289062 201.695312 220.203125 C 201.695312 215.113281 197.546875 210.96875 192.460938 210.96875 " fill-opacity="1" fill-rule="nonzero"/><path fill="rgb(93.328857%, 52.549744%, 54.899597%)" d="M 229.398438 210.96875 C 224.3125 210.96875 220.164062 215.113281 220.164062 220.203125 C 220.164062 225.289062 224.3125 229.4375 229.398438 229.4375 C 234.484375 229.4375 238.632812 225.289062 238.632812 220.203125 C 238.632812 215.113281 234.484375 210.96875 229.398438 210.96875 " fill-opacity="1" fill-rule="nonzero"/><path fill="rgb(93.328857%, 52.549744%, 54.899597%)" d="M 621.316406 317.703125 C 624.636719 321.019531 626.476562 325.421875 626.476562 330.109375 C 626.476562 334.691406 624.707031 339.019531 621.53125 342.304688 L 596.714844 317.484375 C 603.390625 311.03125 614.75 311.136719 621.316406 317.703125 Z M 495.246094 468.625 L 470.390625 443.773438 L 583.65625 330.542969 L 608.476562 355.359375 Z M 463.863281 463.359375 L 475.660156 475.15625 L 461.914062 477.101562 Z M 448.207031 442.472656 L 441.894531 486.699219 C 441.460938 489.546875 442.4375 492.46875 444.492188 494.523438 C 446.222656 496.257812 448.605469 497.230469 451.023438 497.230469 C 451.453125 497.230469 451.886719 497.195312 452.320312 497.121094 L 496.542969 490.808594 C 498.527344 490.558594 500.367188 489.621094 501.773438 488.210938 L 634.375 355.578125 C 641.191406 348.761719 644.945312 339.742188 644.945312 330.109375 C 644.945312 320.480469 641.191406 311.425781 634.375 304.644531 C 620.777344 291.007812 597.039062 291.007812 583.441406 304.644531 L 450.804688 437.242188 C 449.398438 438.652344 448.460938 440.488281 448.207031 442.472656 " fill-opacity="1" fill-rule="nonzero"/><path fill="rgb(93.328857%, 52.549744%, 54.899597%)" d="M 570.816406 355.144531 L 495.03125 430.929688 C 491.421875 434.539062 491.421875 440.382812 495.03125 443.988281 C 496.832031 445.792969 499.175781 446.695312 501.558594 446.695312 C 503.902344 446.695312 506.285156 445.792969 508.085938 443.988281 L 583.875 368.203125 C 587.480469 364.59375 587.480469 358.753906 583.875 355.144531 C 580.265625 351.539062 574.421875 351.539062 570.816406 355.144531 " fill-opacity="1" fill-rule="nonzero"/><path fill="rgb(93.328857%, 52.549744%, 54.899597%)" d="M 478.726562 377.183594 C 478.726562 372.097656 474.578125 367.949219 469.492188 367.949219 L 340.210938 367.949219 C 335.125 367.949219 330.976562 372.097656 330.976562 377.183594 C 330.976562 382.269531 335.125 386.417969 340.210938 386.417969 L 469.492188 386.417969 C 474.578125 386.417969 478.726562 382.269531 478.726562 377.183594 " fill-opacity="1" fill-rule="nonzero"/><path fill="rgb(93.328857%, 52.549744%, 54.899597%)" d="M 303.273438 386.417969 C 308.359375 386.417969 312.507812 382.269531 312.507812 377.183594 C 312.507812 372.097656 308.359375 367.949219 303.273438 367.949219 L 247.867188 367.949219 C 242.78125 367.949219 238.632812 372.097656 238.632812 377.183594 C 238.632812 382.269531 242.78125 386.417969 247.867188 386.417969 L 303.273438 386.417969 " fill-opacity="1" fill-rule="nonzero"/><path fill="rgb(93.328857%, 52.549744%, 54.899597%)" d="M 414.085938 423.355469 L 284.804688 423.355469 C 279.71875 423.355469 275.570312 427.503906 275.570312 432.589844 C 275.570312 437.675781 279.71875 441.824219 284.804688 441.824219 L 414.085938 441.824219 C 419.171875 441.824219 423.320312 437.675781 423.320312 432.589844 C 423.320312 427.503906 419.171875 423.355469 414.085938 423.355469 " fill-opacity="1" fill-rule="nonzero"/><path fill="rgb(93.328857%, 52.549744%, 54.899597%)" d="M 201.695312 432.589844 C 201.695312 437.675781 205.84375 441.824219 210.929688 441.824219 L 247.867188 441.824219 C 252.953125 441.824219 257.101562 437.675781 257.101562 432.589844 C 257.101562 427.503906 252.953125 423.355469 247.867188 423.355469 L 210.929688 423.355469 C 205.84375 423.355469 201.695312 427.503906 201.695312 432.589844 " fill-opacity="1" fill-rule="nonzero"/><path fill="rgb(93.328857%, 52.549744%, 54.899597%)" d="M 414.085938 478.761719 L 340.210938 478.761719 C 335.125 478.761719 330.976562 482.910156 330.976562 487.996094 C 330.976562 493.082031 335.125 497.230469 340.210938 497.230469 L 414.085938 497.230469 C 419.171875 497.230469 423.320312 493.082031 423.320312 487.996094 C 423.320312 482.910156 419.171875 478.761719 414.085938 478.761719 " fill-opacity="1" fill-rule="nonzero"/><path fill="rgb(93.328857%, 52.549744%, 54.899597%)" d="M 210.929688 497.230469 L 303.273438 497.230469 C 308.359375 497.230469 312.507812 493.082031 312.507812 487.996094 C 312.507812 482.910156 308.359375 478.761719 303.273438 478.761719 L 210.929688 478.761719 C 205.84375 478.761719 201.695312 482.910156 201.695312 487.996094 C 201.695312 493.082031 205.84375 497.230469 210.929688 497.230469 " fill-opacity="1" fill-rule="nonzero"/><path fill="rgb(93.328857%, 52.549744%, 54.899597%)" d="M 192.460938 552.636719 L 617.242188 552.636719 C 632.535156 552.636719 644.945312 540.226562 644.945312 524.933594 L 644.945312 377.183594 C 644.945312 372.097656 640.796875 367.949219 635.710938 367.949219 C 630.625 367.949219 626.476562 372.097656 626.476562 377.183594 L 626.476562 524.933594 C 626.476562 530.019531 622.328125 534.167969 617.242188 534.167969 L 192.460938 534.167969 C 187.375 534.167969 183.226562 530.019531 183.226562 524.933594 L 183.226562 340.246094 C 183.226562 335.160156 187.375 331.011719 192.460938 331.011719 L 524.898438 331.011719 C 529.984375 331.011719 534.132812 326.863281 534.132812 321.777344 C 534.132812 316.691406 529.984375 312.542969 524.898438 312.542969 L 192.460938 312.542969 C 177.164062 312.542969 164.757812 324.953125 164.757812 340.246094 L 164.757812 524.933594 C 164.757812 540.226562 177.164062 552.636719 192.460938 552.636719 " fill-opacity="1" fill-rule="nonzero"/><path fill="rgb(93.328857%, 52.549744%, 54.899597%)" d="M 543.367188 478.761719 C 538.28125 478.761719 534.132812 482.910156 534.132812 487.996094 C 534.132812 493.082031 538.28125 497.230469 543.367188 497.230469 L 598.773438 497.230469 C 603.859375 497.230469 608.007812 493.082031 608.007812 487.996094 C 608.007812 482.910156 603.859375 478.761719 598.773438 478.761719 L 543.367188 478.761719 " fill-opacity="1" fill-rule="nonzero"/></svg>