<svg xmlns="http://www.w3.org/2000/svg" xmlns:xlink="http://www.w3.org/1999/xlink" width="1080" zoomAndPan="magnify" viewBox="0 0 810 809.999993" height="1080" preserveAspectRatio="xMidYMid meet" version="1.0"><defs><clipPath id="id1"><path d="M 120.957031 311 L 318 311 L 318 508 L 120.957031 508 Z M 120.957031 311 " clip-rule="nonzero"/></clipPath><clipPath id="id2"><path d="M 511 307 L 688.707031 307 L 688.707031 512 L 511 512 Z M 511 307 " clip-rule="nonzero"/></clipPath><clipPath id="id3"><path d="M 212 351 L 594 351 L 594 688.707031 L 212 688.707031 Z M 212 351 " clip-rule="nonzero"/></clipPath></defs><rect x="-81" width="972" fill="rgb(100%, 100%, 100%)" y="-80.999999" height="971.999992" fill-opacity="1"/><rect x="-81" width="972" fill="rgb(100%, 100%, 100%)" y="-80.999999" height="971.999992" fill-opacity="1"/><rect x="-81" width="972" fill="rgb(100%, 100%, 100%)" y="-80.999999" height="971.999992" fill-opacity="1"/><rect x="-81" width="972" fill="rgb(100%, 100%, 100%)" y="-80.999999" height="971.999992" fill-opacity="1"/><path fill="rgb(93.328857%, 52.549744%, 54.899597%)" d="M 345.394531 264.890625 C 345.394531 264.890625 345.839844 265.335938 345.839844 265.335938 C 360.921875 280.414062 381.769531 289.730469 404.832031 289.730469 C 427.898438 289.730469 448.746094 280.414062 463.824219 265.335938 C 463.824219 265.335938 464.269531 264.890625 464.269531 264.890625 C 464.269531 264.890625 464.710938 264.449219 464.710938 264.449219 C 479.792969 249.367188 489.109375 228.519531 489.109375 205.453125 C 489.109375 182.390625 479.792969 161.542969 464.710938 146.460938 C 464.710938 146.460938 464.269531 146.019531 464.269531 146.019531 C 464.269531 146.019531 463.824219 145.574219 463.824219 145.574219 C 448.746094 130.492188 427.898438 121.179688 404.832031 121.179688 C 381.769531 121.179688 360.921875 130.492188 345.839844 145.574219 C 345.839844 145.574219 345.394531 146.019531 345.394531 146.019531 C 345.394531 146.019531 344.953125 146.460938 344.953125 146.460938 C 329.871094 161.542969 320.558594 182.390625 320.558594 205.453125 C 320.558594 228.519531 329.871094 249.367188 344.953125 264.449219 C 344.953125 264.449219 344.953125 264.890625 345.394531 264.890625 Z M 347.171875 196.582031 L 338.742188 196.582031 C 340.515625 185.050781 344.953125 173.960938 351.605469 165.089844 L 357.371094 170.859375 C 359.144531 172.632812 361.363281 173.519531 363.582031 173.519531 C 365.800781 173.519531 368.015625 172.632812 369.792969 170.859375 C 373.339844 167.308594 373.339844 161.988281 369.792969 158.4375 L 364.027344 152.671875 C 372.898438 146.019531 383.542969 141.140625 395.519531 139.808594 L 395.519531 147.792969 C 395.519531 152.671875 399.511719 156.664062 404.390625 156.664062 C 409.269531 156.664062 413.261719 152.671875 413.261719 147.792969 L 413.261719 139.363281 C 424.792969 141.140625 435.882812 145.574219 444.753906 152.226562 L 438.984375 157.996094 C 435.4375 161.542969 435.4375 166.867188 438.984375 170.414062 C 440.761719 172.1875 442.976562 173.074219 445.195312 173.074219 C 447.414062 173.074219 449.632812 172.1875 451.40625 170.414062 L 457.171875 164.648438 C 463.824219 173.519531 468.703125 184.164062 470.035156 196.140625 L 462.496094 196.140625 C 457.617188 196.140625 453.625 200.132812 453.625 205.011719 C 453.625 209.890625 457.617188 213.882812 462.496094 213.882812 L 470.921875 213.882812 C 469.148438 225.414062 464.710938 236.503906 458.058594 245.375 L 452.292969 239.609375 C 448.746094 236.058594 443.421875 236.058594 439.875 239.609375 C 436.324219 243.15625 436.324219 248.480469 439.875 252.027344 L 445.640625 257.792969 C 436.769531 264.449219 426.125 269.328125 414.148438 270.65625 L 414.148438 263.117188 C 414.148438 258.238281 410.15625 254.246094 405.277344 254.246094 C 400.398438 254.246094 396.40625 258.238281 396.40625 263.117188 L 396.40625 271.542969 C 384.871094 269.769531 373.785156 265.335938 364.914062 258.679688 L 370.679688 252.914062 C 374.226562 249.367188 374.226562 244.042969 370.679688 240.496094 C 367.128906 236.945312 361.808594 236.945312 358.257812 240.496094 L 352.492188 246.261719 C 345.839844 237.390625 340.960938 226.746094 339.628906 214.769531 L 347.171875 214.769531 C 352.050781 214.769531 356.042969 210.777344 356.042969 205.898438 C 356.042969 201.019531 352.050781 196.582031 347.171875 196.582031 Z M 347.171875 196.582031 " fill-opacity="1" fill-rule="nonzero"/><path fill="rgb(93.328857%, 52.549744%, 54.899597%)" d="M 382.65625 214.324219 L 404.832031 214.324219 C 409.710938 214.324219 413.703125 210.332031 413.703125 205.453125 L 413.703125 178.839844 C 413.703125 173.960938 409.710938 169.96875 404.832031 169.96875 C 399.953125 169.96875 395.960938 173.960938 395.960938 178.839844 L 395.960938 196.582031 L 382.65625 196.582031 C 377.777344 196.582031 373.785156 200.574219 373.785156 205.453125 C 373.785156 210.332031 377.777344 214.324219 382.65625 214.324219 Z M 382.65625 214.324219 " fill-opacity="1" fill-rule="nonzero"/><g clip-path="url(#id1)"><path fill="rgb(93.328857%, 52.549744%, 54.899597%)" d="M 133.378906 435.660156 C 135.152344 440.980469 137.367188 446.304688 140.03125 451.628906 C 137.367188 459.167969 138.699219 468.039062 144.910156 473.804688 L 154.667969 483.5625 C 158.660156 487.554688 163.980469 489.773438 169.75 489.773438 C 172.410156 489.773438 174.628906 489.328125 177.289062 488.441406 C 182.167969 491.105469 187.492188 493.320312 193.257812 495.097656 C 196.804688 502.191406 203.902344 507.515625 212.328125 507.515625 L 226.078125 507.515625 C 234.507812 507.515625 242.046875 502.636719 245.152344 495.097656 C 250.476562 493.320312 255.796875 491.105469 261.121094 488.441406 C 263.339844 489.328125 266 489.773438 268.660156 489.773438 C 274.425781 489.773438 279.75 487.554688 283.742188 483.5625 L 293.5 473.804688 C 299.710938 467.59375 301.039062 459.167969 298.378906 451.628906 C 301.039062 446.75 303.257812 441.425781 305.03125 435.660156 C 312.128906 432.109375 317.453125 425.015625 317.453125 416.585938 L 317.453125 402.835938 C 317.453125 394.410156 312.574219 386.867188 305.03125 383.765625 C 303.257812 378.441406 301.039062 373.117188 298.378906 367.796875 C 299.265625 365.578125 299.710938 362.917969 299.710938 360.253906 C 299.710938 354.488281 297.492188 349.167969 293.5 345.175781 L 283.742188 335.417969 C 279.75 331.425781 274.425781 329.207031 268.660156 329.207031 C 266 329.207031 263.78125 329.648438 261.121094 330.539062 C 256.242188 327.875 250.917969 325.65625 245.152344 323.882812 C 241.605469 316.785156 234.507812 311.464844 226.078125 311.464844 L 212.328125 311.464844 C 203.902344 311.464844 196.363281 316.34375 193.257812 323.882812 C 187.933594 325.65625 182.613281 327.875 177.289062 330.539062 C 174.183594 330.09375 171.964844 329.648438 169.304688 329.648438 C 163.539062 329.648438 158.214844 331.867188 154.222656 335.859375 L 144.464844 345.617188 C 140.917969 349.167969 138.699219 354.488281 138.699219 360.253906 C 138.699219 362.917969 139.144531 365.132812 140.03125 367.796875 C 137.367188 372.675781 135.152344 377.996094 133.378906 383.765625 C 125.835938 386.867188 120.957031 393.964844 120.957031 402.835938 L 120.957031 416.585938 C 120.957031 425.015625 125.835938 432.109375 133.378906 435.660156 Z M 138.699219 402.835938 C 138.699219 401.0625 140.03125 399.289062 142.25 399.289062 L 148.015625 399.289062 C 149.789062 387.3125 154.667969 376.222656 161.320312 366.910156 L 157.328125 362.917969 C 156 361.585938 156 359.367188 157.328125 358.039062 L 167.085938 348.28125 C 167.53125 347.835938 168.417969 347.390625 169.304688 347.390625 C 170.191406 347.390625 171.078125 347.835938 171.523438 348.28125 L 175.515625 352.269531 C 184.828125 345.175781 195.917969 340.738281 207.894531 338.964844 L 207.894531 333.199219 C 207.894531 331.425781 209.226562 329.648438 211.441406 329.648438 L 225.191406 329.648438 C 226.96875 329.648438 228.742188 330.980469 228.742188 333.199219 L 228.742188 338.964844 C 240.71875 340.738281 251.804688 345.617188 261.121094 352.269531 L 265.113281 348.28125 C 265.554688 347.835938 266.445312 347.390625 267.332031 347.390625 C 268.21875 347.390625 269.105469 347.835938 269.546875 348.28125 L 279.304688 358.039062 C 280.636719 359.367188 280.636719 361.585938 279.304688 362.917969 L 275.316406 366.910156 C 282.410156 376.222656 286.847656 387.3125 288.621094 399.289062 L 294.386719 399.289062 C 296.160156 399.289062 297.9375 400.617188 297.9375 402.835938 L 297.9375 416.585938 C 297.9375 418.359375 296.605469 420.136719 294.386719 420.136719 L 288.621094 420.136719 C 286.847656 432.109375 281.96875 443.199219 275.316406 452.515625 L 279.304688 456.507812 C 280.636719 457.835938 280.636719 460.054688 279.304688 461.386719 L 269.546875 471.144531 C 269.546875 471.585938 268.660156 471.585938 267.773438 471.585938 C 266.886719 471.585938 266 471.144531 265.554688 470.699219 L 261.5625 466.707031 C 252.25 473.804688 241.160156 478.242188 229.183594 480.015625 L 229.183594 485.78125 C 229.183594 487.554688 227.855469 489.328125 225.636719 489.328125 L 211.886719 489.328125 C 210.113281 489.328125 208.335938 488 208.335938 485.78125 L 208.335938 480.015625 C 196.363281 478.242188 185.273438 473.363281 175.957031 466.707031 L 171.964844 470.699219 C 171.078125 471.585938 170.191406 471.585938 169.304688 471.585938 C 168.417969 471.585938 167.53125 471.144531 167.085938 470.699219 L 157.328125 460.941406 C 156 459.613281 156 457.394531 157.328125 456.0625 L 161.320312 452.070312 C 154.222656 442.757812 149.789062 431.667969 148.015625 419.691406 L 142.25 419.691406 C 140.03125 419.691406 138.699219 418.359375 138.699219 416.144531 Z M 138.699219 402.835938 " fill-opacity="1" fill-rule="nonzero"/></g><path fill="rgb(93.328857%, 52.549744%, 54.899597%)" d="M 218.539062 462.714844 C 247.8125 462.714844 271.765625 438.765625 271.765625 409.488281 C 271.765625 380.214844 247.8125 356.261719 218.539062 356.261719 C 189.265625 356.261719 165.3125 380.214844 165.3125 409.488281 C 165.3125 438.765625 189.265625 462.714844 218.539062 462.714844 Z M 218.539062 374.003906 C 238.054688 374.003906 254.023438 389.972656 254.023438 409.488281 C 254.023438 429.007812 238.054688 444.972656 218.539062 444.972656 C 199.023438 444.972656 183.054688 429.007812 183.054688 409.488281 C 183.054688 389.972656 199.023438 374.003906 218.539062 374.003906 Z M 218.539062 374.003906 " fill-opacity="1" fill-rule="nonzero"/><path fill="rgb(93.328857%, 52.549744%, 54.899597%)" d="M 578.261719 289.730469 L 599.109375 289.730469 C 576.933594 252.914062 544.996094 222.753906 506.40625 203.238281 C 506.40625 204.125 506.40625 204.566406 506.40625 205.453125 C 506.40625 211.222656 505.964844 216.988281 505.074219 222.308594 C 534.792969 238.722656 560.078125 261.785156 578.261719 289.730469 Z M 578.261719 289.730469 " fill-opacity="1" fill-rule="nonzero"/><g clip-path="url(#id2)"><path fill="rgb(93.328857%, 52.549744%, 54.899597%)" d="M 662.09375 325.214844 L 643.910156 325.214844 C 641.691406 315.011719 632.820312 307.472656 622.175781 307.472656 L 577.820312 307.472656 C 567.171875 307.472656 558.300781 315.011719 556.085938 325.214844 L 537.898438 325.214844 C 523.261719 325.214844 511.285156 337.191406 511.285156 351.828125 L 511.285156 484.894531 C 511.285156 499.53125 523.261719 511.507812 537.898438 511.507812 L 662.09375 511.507812 C 676.730469 511.507812 688.707031 499.53125 688.707031 484.894531 L 688.707031 351.828125 C 688.707031 337.191406 676.730469 325.214844 662.09375 325.214844 Z M 573.382812 329.648438 C 573.382812 326.988281 575.15625 325.214844 577.820312 325.214844 L 622.175781 325.214844 C 624.835938 325.214844 626.609375 326.988281 626.609375 329.648438 L 626.609375 338.519531 C 626.609375 341.183594 624.835938 342.957031 622.175781 342.957031 L 577.820312 342.957031 C 575.15625 342.957031 573.382812 341.183594 573.382812 338.519531 Z M 670.964844 484.894531 C 670.964844 489.773438 666.972656 493.765625 662.09375 493.765625 L 537.898438 493.765625 C 533.019531 493.765625 529.027344 489.773438 529.027344 484.894531 L 529.027344 351.828125 C 529.027344 346.949219 533.019531 342.957031 537.898438 342.957031 L 556.085938 342.957031 C 558.300781 353.160156 567.171875 360.699219 577.820312 360.699219 L 622.175781 360.699219 C 632.820312 360.699219 641.691406 353.160156 643.910156 342.957031 L 662.09375 342.957031 C 666.972656 342.957031 670.964844 346.949219 670.964844 351.828125 Z M 670.964844 484.894531 " fill-opacity="1" fill-rule="nonzero"/></g><path fill="rgb(93.328857%, 52.549744%, 54.899597%)" d="M 635.480469 378.441406 L 564.511719 378.441406 C 559.632812 378.441406 555.640625 382.433594 555.640625 387.3125 C 555.640625 392.191406 559.632812 396.183594 564.511719 396.183594 L 635.480469 396.183594 C 640.359375 396.183594 644.351562 392.191406 644.351562 387.3125 C 644.351562 382.433594 640.359375 378.441406 635.480469 378.441406 Z M 635.480469 378.441406 " fill-opacity="1" fill-rule="nonzero"/><path fill="rgb(93.328857%, 52.549744%, 54.899597%)" d="M 635.480469 413.925781 L 564.511719 413.925781 C 559.632812 413.925781 555.640625 417.917969 555.640625 422.796875 C 555.640625 427.675781 559.632812 431.667969 564.511719 431.667969 L 635.480469 431.667969 C 640.359375 431.667969 644.351562 427.675781 644.351562 422.796875 C 644.351562 417.917969 640.359375 413.925781 635.480469 413.925781 Z M 635.480469 413.925781 " fill-opacity="1" fill-rule="nonzero"/><path fill="rgb(93.328857%, 52.549744%, 54.899597%)" d="M 635.480469 449.410156 L 564.511719 449.410156 C 559.632812 449.410156 555.640625 453.402344 555.640625 458.28125 C 555.640625 463.160156 559.632812 467.152344 564.511719 467.152344 L 635.480469 467.152344 C 640.359375 467.152344 644.351562 463.160156 644.351562 458.28125 C 644.351562 453.402344 640.359375 449.410156 635.480469 449.410156 Z M 635.480469 449.410156 " fill-opacity="1" fill-rule="nonzero"/><path fill="rgb(93.328857%, 52.549744%, 54.899597%)" d="M 225.191406 294.164062 C 226.078125 294.164062 226.96875 294.164062 227.855469 294.164062 C 246.484375 264.449219 272.652344 239.609375 303.703125 222.308594 C 303.257812 216.988281 302.816406 211.222656 302.816406 205.453125 C 302.816406 204.566406 302.816406 204.125 302.816406 203.238281 C 262.894531 223.640625 229.628906 255.578125 207.449219 294.609375 C 208.78125 294.609375 210.113281 294.164062 211.441406 294.164062 Z M 225.191406 294.164062 " fill-opacity="1" fill-rule="nonzero"/><g clip-path="url(#id3)"><path fill="rgb(93.328857%, 52.549744%, 54.899597%)" d="M 593.785156 529.25 L 572.496094 529.25 C 558.300781 548.765625 540.558594 565.175781 520.15625 578.929688 C 507.738281 573.605469 494.875 567.839844 485.117188 563.847656 C 479.351562 561.1875 474.914062 559.410156 471.808594 558.082031 L 464.269531 533.683594 C 482.453125 510.621094 493.542969 478.242188 493.542969 448.523438 C 493.542969 395.296875 455.839844 351.828125 409.269531 351.828125 C 362.695312 351.828125 324.992188 395.296875 324.992188 448.523438 C 324.992188 478.242188 336.082031 510.621094 354.265625 533.683594 L 346.726562 557.636719 C 344.066406 558.96875 339.1875 560.742188 333.421875 563.402344 C 322.332031 568.28125 307.25 574.9375 293.058594 580.703125 C 269.546875 565.621094 249.144531 546.546875 233.621094 523.484375 C 230.960938 523.925781 228.296875 524.371094 225.191406 524.371094 L 212.773438 524.371094 C 228.742188 549.652344 249.144531 571.386719 273.539062 588.6875 C 262.894531 593.121094 254.910156 596.671875 253.582031 597.113281 C 250.917969 598 248.703125 600.21875 248.257812 602.878906 L 227.410156 676.953125 C 226.523438 679.613281 227.410156 682.71875 228.742188 684.9375 C 230.070312 687.15625 233.175781 688.484375 235.839844 688.484375 L 581.8125 688.484375 C 584.472656 688.484375 587.132812 687.15625 588.90625 684.9375 C 590.683594 682.71875 591.125 680.058594 590.238281 676.953125 L 569.390625 602.878906 C 568.503906 600.21875 566.730469 598 564.070312 597.113281 C 562.738281 596.671875 552.09375 592.234375 538.785156 586.023438 C 560.519531 570.945312 579.148438 551.425781 593.785156 529.25 Z M 342.734375 448.523438 C 342.734375 405.054688 372.453125 369.570312 409.269531 369.570312 C 446.082031 369.570312 475.800781 405.054688 475.800781 448.523438 C 475.800781 491.992188 446.082031 546.992188 409.269531 546.992188 C 372.453125 546.992188 342.734375 492.433594 342.734375 448.523438 Z M 553.867188 612.636719 L 570.277344 671.1875 L 247.8125 671.1875 L 264.226562 612.636719 C 272.210938 609.089844 291.726562 601.105469 340.074219 579.816406 C 357.816406 572.273438 357.816406 571.832031 359.144531 571.386719 C 360.476562 570.058594 361.808594 568.726562 362.25 566.953125 L 368.015625 548.324219 C 379.992188 558.523438 394.1875 564.734375 408.824219 564.734375 C 423.460938 564.734375 437.65625 558.523438 449.632812 548.324219 L 455.398438 566.953125 C 455.839844 568.726562 457.171875 570.5 458.503906 571.386719 C 459.390625 572.273438 459.832031 572.273438 477.132812 579.816406 C 526.367188 600.660156 545.882812 609.089844 553.867188 612.636719 Z M 553.867188 612.636719 " fill-opacity="1" fill-rule="nonzero"/></g></svg>