<svg xmlns="http://www.w3.org/2000/svg" xmlns:xlink="http://www.w3.org/1999/xlink" width="1080" zoomAndPan="magnify" viewBox="0 0 810 809.999993" height="1080" preserveAspectRatio="xMidYMid meet" version="1.0"><defs><clipPath id="id1"><path d="M 121.5 121.5 L 688.5 121.5 L 688.5 688.5 L 121.5 688.5 Z M 121.5 121.5 " clip-rule="nonzero"/></clipPath></defs><rect x="-81" width="972" fill="rgb(100%, 100%, 100%)" y="-80.999999" height="971.999992" fill-opacity="1"/><rect x="-81" width="972" fill="rgb(100%, 100%, 100%)" y="-80.999999" height="971.999992" fill-opacity="1"/><rect x="-81" width="972" fill="rgb(100%, 100%, 100%)" y="-80.999999" height="971.999992" fill-opacity="1"/><rect x="-81" width="972" fill="rgb(100%, 100%, 100%)" y="-80.999999" height="971.999992" fill-opacity="1"/><g clip-path="url(#id1)"><path fill="rgb(93.328857%, 52.549744%, 54.899597%)" d="M 669.601562 537.261719 C 669.601562 558.121094 652.65625 575.0625 631.800781 575.0625 L 339.773438 575.0625 C 335.160156 575.0625 330.730469 576.722656 327.296875 579.789062 L 226.851562 667.976562 C 224.011719 670.449219 221.019531 669.488281 219.875 668.972656 C 218.730469 668.457031 216 666.832031 216 662.957031 L 216 593.964844 C 216 583.554688 207.507812 575.0625 197.101562 575.0625 L 178.199219 575.0625 C 157.34375 575.0625 140.398438 558.121094 140.398438 537.261719 L 140.398438 244.351562 C 140.398438 223.492188 157.34375 206.550781 178.199219 206.550781 L 338.851562 206.550781 L 338.851562 406.550781 C 338.738281 413.269531 340.621094 420.023438 344.277344 426.152344 L 382.519531 490.050781 L 187.648438 490.050781 C 182.445312 490.050781 178.199219 494.296875 178.199219 499.5 C 178.199219 504.703125 182.445312 508.949219 187.648438 508.949219 L 404.925781 508.949219 C 404.964844 508.949219 404.964844 508.949219 405 508.949219 C 411.902344 508.949219 418.214844 505.40625 421.90625 499.390625 L 465.722656 426.113281 C 469.414062 420.023438 471.261719 413.195312 471.148438 406.625 L 471.148438 206.550781 L 631.800781 206.550781 C 652.65625 206.550781 669.601562 223.492188 669.601562 244.351562 Z M 360.554688 143.09375 C 362.328125 141.359375 364.652344 140.398438 367.199219 140.398438 C 367.238281 140.398438 367.273438 140.398438 367.3125 140.398438 L 442.761719 140.398438 C 444.941406 140.546875 447.671875 141.324219 449.445312 143.09375 C 451.253906 144.902344 452.25 147.304688 452.25 149.851562 L 452.25 178.164062 L 357.75 178.164062 L 357.75 149.851562 C 357.75 147.304688 358.746094 144.902344 360.554688 143.09375 Z M 376.648438 405.183594 L 357.75 405.183594 L 357.75 197.0625 L 376.648438 197.0625 Z M 414.449219 404.964844 L 395.550781 404.964844 L 395.550781 197.0625 L 414.449219 197.0625 Z M 452.25 197.0625 L 452.25 405.183594 L 433.351562 405.183594 L 433.351562 197.0625 Z M 405.664062 489.679688 L 404.335938 489.679688 L 365.058594 424.085938 L 444.941406 424.085938 Z M 631.800781 187.648438 L 471.148438 187.648438 L 471.148438 149.851562 C 471.148438 142.207031 468.160156 135.046875 462.734375 129.695312 C 457.34375 124.34375 450.402344 121.242188 442.6875 121.5 L 367.382812 121.5 C 367.3125 121.5 367.238281 121.5 367.125 121.5 C 359.632812 121.5 352.582031 124.378906 347.265625 129.695312 C 341.839844 135.046875 338.851562 142.207031 338.851562 149.851562 L 338.851562 187.648438 L 178.199219 187.648438 C 146.933594 187.648438 121.5 213.082031 121.5 244.351562 L 121.5 537.261719 C 121.5 568.527344 146.933594 593.964844 178.199219 593.964844 L 197.101562 593.964844 L 197.101562 662.957031 C 197.101562 673.105469 202.859375 682.039062 212.125 686.210938 C 215.519531 687.761719 219.136719 688.535156 222.679688 688.535156 C 228.699219 688.535156 234.566406 686.320312 239.328125 682.152344 L 339.773438 593.964844 L 631.800781 593.964844 C 663.066406 593.964844 688.5 568.527344 688.5 537.261719 L 688.5 244.351562 C 688.5 213.082031 663.066406 187.648438 631.800781 187.648438 " fill-opacity="1" fill-rule="nonzero"/></g><path fill="rgb(93.328857%, 52.549744%, 54.899597%)" d="M 187.648438 272.699219 L 310.5 272.699219 C 315.703125 272.699219 319.949219 268.453125 319.949219 263.25 C 319.949219 258.046875 315.703125 253.800781 310.5 253.800781 L 187.648438 253.800781 C 182.445312 253.800781 178.199219 258.046875 178.199219 263.25 C 178.199219 268.453125 182.445312 272.699219 187.648438 272.699219 " fill-opacity="1" fill-rule="nonzero"/><path fill="rgb(93.328857%, 52.549744%, 54.899597%)" d="M 622.351562 253.800781 L 499.5 253.800781 C 494.296875 253.800781 490.050781 258.046875 490.050781 263.25 C 490.050781 268.453125 494.296875 272.699219 499.5 272.699219 L 622.351562 272.699219 C 627.554688 272.699219 631.800781 268.453125 631.800781 263.25 C 631.800781 258.046875 627.554688 253.800781 622.351562 253.800781 " fill-opacity="1" fill-rule="nonzero"/><path fill="rgb(93.328857%, 52.549744%, 54.899597%)" d="M 187.648438 319.949219 L 310.5 319.949219 C 315.703125 319.949219 319.949219 315.703125 319.949219 310.5 C 319.949219 305.296875 315.703125 301.050781 310.5 301.050781 L 187.648438 301.050781 C 182.445312 301.050781 178.199219 305.296875 178.199219 310.5 C 178.199219 315.703125 182.445312 319.949219 187.648438 319.949219 " fill-opacity="1" fill-rule="nonzero"/><path fill="rgb(93.328857%, 52.549744%, 54.899597%)" d="M 622.351562 301.050781 L 499.5 301.050781 C 494.296875 301.050781 490.050781 305.296875 490.050781 310.5 C 490.050781 315.703125 494.296875 319.949219 499.5 319.949219 L 622.351562 319.949219 C 627.554688 319.949219 631.800781 315.703125 631.800781 310.5 C 631.800781 305.296875 627.554688 301.050781 622.351562 301.050781 " fill-opacity="1" fill-rule="nonzero"/><path fill="rgb(93.328857%, 52.549744%, 54.899597%)" d="M 187.648438 367.199219 L 310.5 367.199219 C 315.703125 367.199219 319.949219 362.953125 319.949219 357.75 C 319.949219 352.546875 315.703125 348.300781 310.5 348.300781 L 187.648438 348.300781 C 182.445312 348.300781 178.199219 352.546875 178.199219 357.75 C 178.199219 362.953125 182.445312 367.199219 187.648438 367.199219 " fill-opacity="1" fill-rule="nonzero"/><path fill="rgb(93.328857%, 52.549744%, 54.899597%)" d="M 622.351562 348.300781 L 499.5 348.300781 C 494.296875 348.300781 490.050781 352.546875 490.050781 357.75 C 490.050781 362.953125 494.296875 367.199219 499.5 367.199219 L 622.351562 367.199219 C 627.554688 367.199219 631.800781 362.953125 631.800781 357.75 C 631.800781 352.546875 627.554688 348.300781 622.351562 348.300781 " fill-opacity="1" fill-rule="nonzero"/><path fill="rgb(93.328857%, 52.549744%, 54.899597%)" d="M 187.648438 414.449219 L 310.5 414.449219 C 315.703125 414.449219 319.949219 410.203125 319.949219 405 C 319.949219 399.796875 315.703125 395.550781 310.5 395.550781 L 187.648438 395.550781 C 182.445312 395.550781 178.199219 399.796875 178.199219 405 C 178.199219 410.203125 182.445312 414.449219 187.648438 414.449219 " fill-opacity="1" fill-rule="nonzero"/><path fill="rgb(93.328857%, 52.549744%, 54.899597%)" d="M 622.351562 395.550781 L 499.5 395.550781 C 494.296875 395.550781 490.050781 399.796875 490.050781 405 C 490.050781 410.203125 494.296875 414.449219 499.5 414.449219 L 622.351562 414.449219 C 627.554688 414.449219 631.800781 410.203125 631.800781 405 C 631.800781 399.796875 627.554688 395.550781 622.351562 395.550781 " fill-opacity="1" fill-rule="nonzero"/><path fill="rgb(93.328857%, 52.549744%, 54.899597%)" d="M 187.648438 461.699219 L 329.398438 461.699219 C 334.605469 461.699219 338.851562 457.453125 338.851562 452.25 C 338.851562 447.046875 334.605469 442.800781 329.398438 442.800781 L 187.648438 442.800781 C 182.445312 442.800781 178.199219 447.046875 178.199219 452.25 C 178.199219 457.453125 182.445312 461.699219 187.648438 461.699219 " fill-opacity="1" fill-rule="nonzero"/><path fill="rgb(93.328857%, 52.549744%, 54.899597%)" d="M 622.351562 442.800781 L 480.601562 442.800781 C 475.394531 442.800781 471.148438 447.046875 471.148438 452.25 C 471.148438 457.453125 475.394531 461.699219 480.601562 461.699219 L 622.351562 461.699219 C 627.554688 461.699219 631.800781 457.453125 631.800781 452.25 C 631.800781 447.046875 627.554688 442.800781 622.351562 442.800781 " fill-opacity="1" fill-rule="nonzero"/></svg>