<svg xmlns="http://www.w3.org/2000/svg" xmlns:xlink="http://www.w3.org/1999/xlink" width="1080" zoomAndPan="magnify" viewBox="0 0 810 809.999993" height="1080" preserveAspectRatio="xMidYMid meet" version="1.0"><defs><clipPath id="id1"><path d="M 124 173.949219 L 681 173.949219 L 681 635.949219 L 124 635.949219 Z M 124 173.949219 " clip-rule="nonzero"/></clipPath></defs><rect x="-81" width="972" fill="rgb(100%, 100%, 100%)" y="-80.999999" height="971.999992" fill-opacity="1"/><rect x="-81" width="972" fill="rgb(100%, 100%, 100%)" y="-80.999999" height="971.999992" fill-opacity="1"/><rect x="-81" width="972" fill="rgb(100%, 100%, 100%)" y="-80.999999" height="971.999992" fill-opacity="1"/><rect x="-81" width="972" fill="rgb(100%, 100%, 100%)" y="-80.999999" height="971.999992" fill-opacity="1"/><g clip-path="url(#id1)"><path fill="rgb(93.328857%, 52.549744%, 54.899597%)" d="M 150.933594 173.949219 C 136.582031 173.949219 124.878906 185.652344 124.878906 200 L 124.878906 564.738281 C 124.878906 579.085938 136.582031 590.789062 150.933594 590.789062 L 380.300781 590.789062 L 375.277344 625.898438 C 374.871094 628.613281 375.785156 631.328125 377.71875 633.261719 C 379.347656 634.890625 381.589844 635.804688 383.863281 635.804688 C 384.269531 635.804688 384.675781 635.769531 385.082031 635.703125 L 427.835938 629.597656 L 483.308594 623.761719 C 485.277344 623.523438 487.144531 622.644531 488.535156 621.21875 L 643.492188 465.785156 L 643.523438 465.785156 L 668.054688 441.257812 C 684.988281 424.296875 684.988281 396.75 668.054688 379.824219 L 631.207031 342.984375 C 625.507812 337.285156 618.585938 333.691406 611.292969 331.789062 L 611.292969 200 C 611.292969 185.652344 599.585938 173.949219 585.234375 173.949219 Z M 150.933594 191.316406 L 585.234375 191.316406 C 590.019531 191.316406 593.917969 195.21875 593.917969 200 L 593.917969 226.054688 L 142.25 226.054688 L 142.25 200 C 142.25 195.21875 146.152344 191.316406 150.933594 191.316406 Z M 142.25 243.421875 L 593.917969 243.421875 L 593.917969 330.90625 C 585.097656 332.265625 576.582031 336.199219 569.796875 342.984375 L 545.230469 367.542969 C 545.195312 367.578125 545.195312 367.578125 545.195312 367.613281 L 518.867188 394.039062 C 518.765625 394.105469 518.628906 394.105469 518.5625 394.207031 C 518.460938 394.308594 518.425781 394.445312 518.324219 394.546875 L 390.242188 522.976562 C 388.882812 524.367188 388 526.167969 387.765625 528.101562 L 382.503906 573.421875 L 150.933594 573.421875 C 146.152344 573.421875 142.25 569.519531 142.25 564.738281 Z M 255.167969 278.15625 C 252.960938 278.15625 250.722656 279.007812 249.027344 280.703125 L 220.421875 309.300781 L 209.191406 298.070312 C 205.800781 294.679688 200.304688 294.679688 196.910156 298.070312 C 193.515625 301.464844 193.515625 306.957031 196.910156 310.351562 L 214.28125 327.71875 C 215.976562 329.414062 218.183594 330.261719 220.421875 330.261719 C 222.664062 330.261719 224.867188 329.414062 226.5625 327.71875 L 261.308594 292.980469 C 264.703125 289.589844 264.703125 284.09375 261.308594 280.703125 C 259.613281 279.007812 257.371094 278.15625 255.167969 278.15625 Z M 289.910156 295.527344 C 285.125 295.527344 281.226562 299.425781 281.226562 304.210938 C 281.226562 308.992188 285.125 312.894531 289.910156 312.894531 L 324.65625 312.894531 C 329.4375 312.894531 333.339844 308.992188 333.339844 304.210938 C 333.339844 299.425781 329.4375 295.527344 324.65625 295.527344 Z M 359.398438 295.527344 C 354.613281 295.527344 350.710938 299.425781 350.710938 304.210938 C 350.710938 308.992188 354.613281 312.894531 359.398438 312.894531 L 498.375 312.894531 C 503.160156 312.894531 507.058594 308.992188 507.058594 304.210938 C 507.058594 299.425781 503.160156 295.527344 498.375 295.527344 Z M 255.167969 347.632812 C 252.960938 347.632812 250.722656 348.480469 249.027344 350.175781 L 220.421875 378.773438 L 209.191406 367.542969 C 205.800781 364.152344 200.304688 364.152344 196.910156 367.542969 C 193.515625 370.9375 193.515625 376.433594 196.910156 379.824219 L 214.28125 397.191406 C 215.976562 398.890625 218.183594 399.738281 220.421875 399.738281 C 222.664062 399.738281 224.867188 398.890625 226.5625 397.191406 L 261.308594 362.457031 C 264.703125 359.0625 264.703125 353.566406 261.308594 350.175781 C 259.613281 348.480469 257.371094 347.632812 255.167969 347.632812 Z M 600.503906 347.632812 C 607.1875 347.664062 613.835938 350.175781 618.925781 355.265625 L 655.773438 392.105469 C 665.917969 402.246094 665.917969 418.769531 655.773438 428.945312 L 637.351562 447.363281 L 563.65625 373.683594 L 582.078125 355.265625 C 587.167969 350.175781 593.816406 347.632812 600.503906 347.632812 Z M 289.910156 365 C 285.125 365 281.226562 368.902344 281.226562 373.683594 C 281.226562 378.46875 285.125 382.367188 289.910156 382.367188 L 498.375 382.367188 C 503.160156 382.367188 507.058594 378.46875 507.058594 373.683594 C 507.058594 368.902344 503.160156 365 498.375 365 Z M 551.40625 386 L 625.101562 459.679688 L 610.714844 474.09375 L 537.019531 400.414062 Z M 524.738281 412.695312 L 598.433594 486.375 L 597.855469 486.984375 C 596.90625 487.597656 596.125 488.378906 595.515625 489.292969 L 488.570312 596.625 L 484.632812 558.664062 C 484.15625 554.253906 480.425781 550.898438 475.980469 550.898438 L 460.101562 550.898438 L 460.101562 538.582031 L 506.6875 492.007812 C 510.078125 488.613281 510.078125 483.152344 506.6875 479.761719 C 503.292969 476.335938 497.796875 476.335938 494.40625 479.761719 L 448.191406 525.929688 L 415.28125 522.46875 Z M 255.167969 417.105469 C 252.960938 417.105469 250.722656 417.953125 249.027344 419.648438 L 220.421875 448.246094 L 209.191406 437.019531 C 205.800781 433.625 200.304688 433.625 196.910156 437.019531 C 193.515625 440.410156 193.515625 445.90625 196.910156 449.296875 L 214.28125 466.667969 C 215.976562 468.363281 218.183594 469.210938 220.421875 469.210938 C 222.664062 469.210938 224.867188 468.363281 226.5625 466.667969 L 261.308594 431.929688 C 264.703125 428.539062 264.703125 423.042969 261.308594 419.648438 C 259.613281 417.953125 257.371094 417.105469 255.167969 417.105469 Z M 289.910156 434.472656 C 285.125 434.472656 281.226562 438.375 281.226562 443.15625 C 281.226562 447.941406 285.125 451.84375 289.910156 451.84375 L 394.140625 451.84375 C 398.925781 451.84375 402.828125 447.941406 402.828125 443.15625 C 402.828125 438.375 398.925781 434.472656 394.140625 434.472656 Z M 176.992188 521.316406 C 172.210938 521.316406 168.308594 525.21875 168.308594 530 L 168.308594 547.367188 C 168.308594 552.152344 172.210938 556.054688 176.992188 556.054688 C 181.777344 556.054688 185.679688 552.152344 185.679688 547.367188 L 185.679688 530 C 185.679688 525.21875 181.777344 521.316406 176.992188 521.316406 Z M 220.421875 521.316406 C 215.640625 521.316406 211.738281 525.21875 211.738281 530 L 211.738281 547.367188 C 211.738281 552.152344 215.640625 556.054688 220.421875 556.054688 C 225.207031 556.054688 229.109375 552.152344 229.109375 547.367188 L 229.109375 530 C 229.109375 525.21875 225.207031 521.316406 220.421875 521.316406 Z M 263.851562 521.316406 C 259.070312 521.316406 255.167969 525.21875 255.167969 530 L 255.167969 547.367188 C 255.167969 552.152344 259.070312 556.054688 263.851562 556.054688 C 268.636719 556.054688 272.539062 552.152344 272.539062 547.367188 L 272.539062 530 C 272.539062 525.21875 268.636719 521.316406 263.851562 521.316406 Z M 307.28125 521.316406 C 302.5 521.316406 298.597656 525.21875 298.597656 530 L 298.597656 547.367188 C 298.597656 552.152344 302.5 556.054688 307.28125 556.054688 C 312.066406 556.054688 315.96875 552.152344 315.96875 547.367188 L 315.96875 530 C 315.96875 525.21875 312.066406 521.316406 307.28125 521.316406 Z M 350.710938 521.316406 C 345.929688 521.316406 342.027344 525.21875 342.027344 530 L 342.027344 547.367188 C 342.027344 552.152344 345.929688 556.054688 350.710938 556.054688 C 355.496094 556.054688 359.398438 552.152344 359.398438 547.367188 L 359.398438 530 C 359.398438 525.21875 355.496094 521.316406 350.710938 521.316406 Z M 404.050781 538.785156 L 442.730469 542.855469 L 442.730469 559.582031 C 442.730469 564.363281 446.632812 568.265625 451.414062 568.265625 L 468.144531 568.265625 L 472.214844 607.445312 L 430.074219 611.921875 L 399.128906 580.984375 Z M 404.050781 538.785156 " fill-opacity="1" fill-rule="nonzero"/></g></svg>