<svg xmlns="http://www.w3.org/2000/svg" xmlns:xlink="http://www.w3.org/1999/xlink" width="1080" zoomAndPan="magnify" viewBox="0 0 810 809.999993" height="1080" preserveAspectRatio="xMidYMid meet" version="1.0"><defs><clipPath id="id1"><path d="M 0 93.65625 L 810 93.65625 L 810 716.15625 L 0 716.15625 Z M 0 93.65625 " clip-rule="nonzero"/></clipPath></defs><g clip-path="url(#id1)"><path fill="rgb(100%, 100%, 100%)" d="M 62.523438 93.65625 C 28.488281 93.65625 0.253906 121.882812 0.253906 155.90625 L 0.253906 653.90625 C 0.253906 687.929688 28.488281 716.15625 62.523438 716.15625 L 747.476562 716.15625 C 781.511719 716.15625 809.746094 687.929688 809.746094 653.90625 L 809.746094 155.90625 C 809.746094 121.882812 781.511719 93.65625 747.476562 93.65625 Z M 146.558594 155.90625 L 663.441406 155.90625 L 405 346.851562 Z M 93.65625 232.929688 L 405 462.960938 L 716.34375 232.929688 L 716.34375 653.90625 L 93.65625 653.90625 Z M 93.65625 232.929688 " fill-opacity="1" fill-rule="nonzero"/></g></svg>