<svg xmlns="http://www.w3.org/2000/svg" xmlns:xlink="http://www.w3.org/1999/xlink" width="1080" zoomAndPan="magnify" viewBox="0 0 810 809.999993" height="1080" preserveAspectRatio="xMidYMid meet" version="1.0"><defs><clipPath id="id1"><path d="M 152.175781 152.175781 L 657.675781 152.175781 L 657.675781 657.675781 L 152.175781 657.675781 Z M 152.175781 152.175781 " clip-rule="nonzero"/></clipPath></defs><rect x="-81" width="972" fill="rgb(100%, 100%, 100%)" y="-80.999999" height="971.999992" fill-opacity="1"/><rect x="-81" width="972" fill="rgb(100%, 100%, 100%)" y="-80.999999" height="971.999992" fill-opacity="1"/><rect x="-81" width="972" fill="rgb(100%, 100%, 100%)" y="-80.999999" height="971.999992" fill-opacity="1"/><rect x="-81" width="972" fill="rgb(100%, 100%, 100%)" y="-80.999999" height="971.999992" fill-opacity="1"/><g clip-path="url(#id1)"><path fill="rgb(93.328857%, 52.549744%, 54.899597%)" d="M 632.402344 556.578125 L 177.453125 556.578125 C 172.8125 556.578125 169.027344 552.792969 169.027344 548.152344 L 169.027344 522.875 L 640.828125 522.875 L 640.828125 548.152344 C 640.828125 552.792969 637.042969 556.578125 632.402344 556.578125 Z M 464.625 607.125 L 345.226562 607.125 C 353.554688 599.164062 360.300781 588.136719 362.210938 573.425781 L 447.644531 573.425781 C 449.550781 588.136719 456.300781 599.164062 464.625 607.125 Z M 514.484375 640.828125 L 295.402344 640.828125 C 295.402344 631.546875 302.972656 623.976562 312.25 623.976562 L 497.601562 623.976562 C 506.882812 623.976562 514.453125 631.546875 514.484375 640.828125 Z M 177.453125 169.027344 L 632.402344 169.027344 C 637.042969 169.027344 640.828125 172.8125 640.828125 177.453125 L 640.828125 506.027344 L 169.027344 506.027344 L 169.027344 177.453125 C 169.027344 172.8125 172.8125 169.027344 177.453125 169.027344 Z M 632.402344 152.175781 L 177.453125 152.175781 C 163.496094 152.175781 152.175781 163.496094 152.175781 177.453125 L 152.175781 548.152344 C 152.175781 562.105469 163.496094 573.425781 177.453125 573.425781 L 345.128906 573.425781 C 340.191406 600.609375 312.085938 606.960938 310.605469 607.292969 C 292.800781 608.179688 278.550781 622.824219 278.550781 640.828125 C 278.550781 650.105469 286.121094 657.675781 295.402344 657.675781 L 514.453125 657.675781 C 523.730469 657.675781 531.300781 650.105469 531.300781 640.828125 C 531.300781 622.824219 517.050781 608.179688 499.28125 607.292969 L 499.246094 607.292969 C 497.929688 607.027344 469.660156 600.9375 464.691406 573.425781 L 632.402344 573.425781 C 646.355469 573.425781 657.675781 562.105469 657.675781 548.152344 L 657.675781 177.453125 C 657.675781 163.496094 646.355469 152.175781 632.402344 152.175781 " fill-opacity="1" fill-rule="nonzero"/></g><path fill="rgb(93.328857%, 52.549744%, 54.899597%)" d="M 202.726562 202.726562 L 607.125 202.726562 L 607.125 472.328125 L 202.726562 472.359375 Z M 202.726562 489.175781 L 607.125 489.175781 C 616.40625 489.175781 623.976562 481.605469 623.976562 472.328125 L 623.976562 202.726562 C 623.976562 193.445312 616.40625 185.875 607.125 185.875 L 202.726562 185.875 C 193.445312 185.875 185.875 193.445312 185.875 202.726562 L 185.875 472.328125 C 185.875 481.605469 193.445312 489.175781 202.726562 489.175781 " fill-opacity="1" fill-rule="nonzero"/><path fill="rgb(93.328857%, 52.549744%, 54.899597%)" d="M 286.976562 286.976562 C 282.335938 286.976562 278.550781 290.761719 278.550781 295.402344 C 278.550781 300.042969 282.335938 303.828125 286.976562 303.828125 C 300.929688 303.828125 312.25 292.503906 312.25 278.550781 L 312.25 236.425781 L 320.675781 236.425781 C 325.316406 236.425781 329.101562 232.640625 329.101562 228 C 329.101562 223.359375 325.316406 219.578125 320.675781 219.578125 L 286.976562 219.578125 C 282.335938 219.578125 278.550781 223.359375 278.550781 228 C 278.550781 232.640625 282.335938 236.425781 286.976562 236.425781 L 295.402344 236.425781 L 295.402344 278.550781 C 295.402344 283.191406 291.617188 286.976562 286.976562 286.976562 " fill-opacity="1" fill-rule="nonzero"/><path fill="rgb(93.328857%, 52.549744%, 54.899597%)" d="M 362.800781 244.851562 C 362.800781 240.210938 366.585938 236.425781 371.226562 236.425781 C 375.867188 236.425781 379.652344 240.210938 379.652344 244.851562 L 379.652344 278.550781 C 379.652344 283.191406 375.867188 286.976562 371.226562 286.976562 C 366.585938 286.976562 362.800781 283.191406 362.800781 278.550781 Z M 371.226562 303.828125 C 385.179688 303.828125 396.5 292.503906 396.5 278.550781 L 396.5 244.851562 C 396.5 230.898438 385.179688 219.578125 371.226562 219.578125 C 357.273438 219.578125 345.953125 230.898438 345.953125 244.851562 L 345.953125 278.550781 C 345.953125 292.503906 357.273438 303.828125 371.226562 303.828125 " fill-opacity="1" fill-rule="nonzero"/><path fill="rgb(93.328857%, 52.549744%, 54.899597%)" d="M 430.203125 236.425781 L 438.625 236.425781 C 443.265625 236.425781 447.050781 240.210938 447.050781 244.851562 C 447.050781 249.492188 443.265625 253.277344 438.625 253.277344 L 430.203125 253.277344 Z M 438.625 286.976562 L 430.203125 286.976562 L 430.203125 270.125 L 438.625 270.125 C 443.265625 270.125 447.050781 273.910156 447.050781 278.550781 C 447.050781 283.191406 443.265625 286.976562 438.625 286.976562 Z M 430.203125 303.828125 L 438.625 303.828125 C 452.582031 303.828125 463.902344 292.503906 463.902344 278.550781 C 463.902344 272.066406 461.367188 266.175781 457.320312 261.703125 C 461.367188 257.226562 463.902344 251.335938 463.902344 244.851562 C 463.902344 230.898438 452.582031 219.578125 438.625 219.578125 L 430.203125 219.578125 C 420.921875 219.578125 413.351562 227.144531 413.351562 236.425781 L 413.351562 286.976562 C 413.351562 296.257812 420.921875 303.828125 430.203125 303.828125 " fill-opacity="1" fill-rule="nonzero"/><path fill="rgb(93.328857%, 52.549744%, 54.899597%)" d="M 506.027344 270.125 C 510.667969 270.125 514.453125 273.910156 514.453125 278.550781 C 514.453125 283.191406 510.667969 286.976562 506.027344 286.976562 C 503.03125 286.976562 500.234375 285.363281 498.71875 282.765625 C 496.382812 278.714844 491.25 277.332031 487.203125 279.703125 C 483.1875 282.007812 481.804688 287.175781 484.140625 291.1875 C 488.648438 298.988281 497.042969 303.828125 506.027344 303.828125 C 519.980469 303.828125 531.300781 292.503906 531.300781 278.550781 C 531.300781 264.597656 519.980469 253.277344 506.027344 253.277344 C 501.386719 253.277344 497.601562 249.492188 497.601562 244.851562 C 497.601562 240.210938 501.386719 236.425781 506.027344 236.425781 C 509.019531 236.425781 511.820312 238.039062 513.332031 240.640625 C 515.667969 244.652344 520.804688 246.035156 524.851562 243.699219 C 528.867188 241.394531 530.25 236.230469 527.910156 232.214844 C 523.402344 224.414062 515.011719 219.578125 506.027344 219.578125 C 492.074219 219.578125 480.75 230.898438 480.75 244.851562 C 480.75 258.804688 492.074219 270.125 506.027344 270.125 " fill-opacity="1" fill-rule="nonzero"/><path fill="rgb(93.328857%, 52.549744%, 54.899597%)" d="M 253.277344 329.101562 L 244.851562 329.101562 C 240.210938 329.101562 236.425781 332.886719 236.425781 337.527344 C 236.425781 342.167969 240.210938 345.953125 244.851562 345.953125 L 253.277344 345.953125 C 257.917969 345.953125 261.703125 342.167969 261.703125 337.527344 C 261.703125 332.886719 257.917969 329.101562 253.277344 329.101562 " fill-opacity="1" fill-rule="nonzero"/><path fill="rgb(93.328857%, 52.549744%, 54.899597%)" d="M 565 329.101562 L 286.976562 329.101562 C 282.335938 329.101562 278.550781 332.886719 278.550781 337.527344 C 278.550781 342.167969 282.335938 345.953125 286.976562 345.953125 L 565 345.953125 C 569.640625 345.953125 573.425781 342.167969 573.425781 337.527344 C 573.425781 332.886719 569.640625 329.101562 565 329.101562 " fill-opacity="1" fill-rule="nonzero"/><path fill="rgb(93.328857%, 52.549744%, 54.899597%)" d="M 253.277344 362.800781 L 244.851562 362.800781 C 240.210938 362.800781 236.425781 366.585938 236.425781 371.226562 C 236.425781 375.867188 240.210938 379.652344 244.851562 379.652344 L 253.277344 379.652344 C 257.917969 379.652344 261.703125 375.867188 261.703125 371.226562 C 261.703125 366.585938 257.917969 362.800781 253.277344 362.800781 " fill-opacity="1" fill-rule="nonzero"/><path fill="rgb(93.328857%, 52.549744%, 54.899597%)" d="M 565 362.800781 L 286.976562 362.800781 C 282.335938 362.800781 278.550781 366.585938 278.550781 371.226562 C 278.550781 375.867188 282.335938 379.652344 286.976562 379.652344 L 565 379.652344 C 569.640625 379.652344 573.425781 375.867188 573.425781 371.226562 C 573.425781 366.585938 569.640625 362.800781 565 362.800781 " fill-opacity="1" fill-rule="nonzero"/><path fill="rgb(93.328857%, 52.549744%, 54.899597%)" d="M 253.277344 396.5 L 244.851562 396.5 C 240.210938 396.5 236.425781 400.285156 236.425781 404.925781 C 236.425781 409.566406 240.210938 413.351562 244.851562 413.351562 L 253.277344 413.351562 C 257.917969 413.351562 261.703125 409.566406 261.703125 404.925781 C 261.703125 400.285156 257.917969 396.5 253.277344 396.5 " fill-opacity="1" fill-rule="nonzero"/><path fill="rgb(93.328857%, 52.549744%, 54.899597%)" d="M 565 396.5 L 286.976562 396.5 C 282.335938 396.5 278.550781 400.285156 278.550781 404.925781 C 278.550781 409.566406 282.335938 413.351562 286.976562 413.351562 L 565 413.351562 C 569.640625 413.351562 573.425781 409.566406 573.425781 404.925781 C 573.425781 400.285156 569.640625 396.5 565 396.5 " fill-opacity="1" fill-rule="nonzero"/><path fill="rgb(93.328857%, 52.549744%, 54.899597%)" d="M 253.277344 430.203125 L 244.851562 430.203125 C 240.210938 430.203125 236.425781 433.984375 236.425781 438.625 C 236.425781 443.265625 240.210938 447.050781 244.851562 447.050781 L 253.277344 447.050781 C 257.917969 447.050781 261.703125 443.265625 261.703125 438.625 C 261.703125 433.984375 257.917969 430.203125 253.277344 430.203125 " fill-opacity="1" fill-rule="nonzero"/><path fill="rgb(93.328857%, 52.549744%, 54.899597%)" d="M 565 430.203125 L 286.976562 430.203125 C 282.335938 430.203125 278.550781 433.984375 278.550781 438.625 C 278.550781 443.265625 282.335938 447.050781 286.976562 447.050781 L 565 447.050781 C 569.640625 447.050781 573.425781 443.265625 573.425781 438.625 C 573.425781 433.984375 569.640625 430.203125 565 430.203125 " fill-opacity="1" fill-rule="nonzero"/></svg>