<svg xmlns="http://www.w3.org/2000/svg" xmlns:xlink="http://www.w3.org/1999/xlink" width="1080" zoomAndPan="magnify" viewBox="0 0 810 809.999993" height="1080" preserveAspectRatio="xMidYMid meet" version="1.0"><path fill="rgb(100%, 100%, 100%)" d="M 736.363281 0 L 73.636719 0 C 32.953125 0 0 32.953125 0 73.636719 L 0 736.363281 C 0 777.046875 32.953125 810 73.636719 810 L 736.363281 810 C 777.046875 810 810 777.046875 810 736.363281 L 810 73.636719 C 810 32.953125 777.046875 0 736.363281 0 Z M 256.035156 662.726562 L 147.421875 662.726562 L 147.421875 313.25 L 256.035156 313.25 Z M 200.621094 263.285156 C 165.609375 263.285156 137.296875 234.898438 137.296875 199.960938 C 137.296875 165.019531 165.644531 136.667969 200.621094 136.667969 C 235.527344 136.667969 263.914062 165.054688 263.914062 199.960938 C 263.914062 234.898438 235.527344 263.285156 200.621094 263.285156 Z M 662.875 662.726562 L 554.335938 662.726562 L 554.335938 492.773438 C 554.335938 452.238281 553.597656 400.101562 497.890625 400.101562 C 441.375 400.101562 432.6875 444.25 432.6875 489.828125 L 432.6875 662.726562 L 324.148438 662.726562 L 324.148438 313.25 L 428.34375 313.25 L 428.34375 361.003906 L 429.816406 361.003906 C 444.320312 333.535156 479.742188 304.558594 532.574219 304.558594 C 642.550781 304.558594 662.875 376.945312 662.875 471.050781 Z M 662.875 662.726562 " fill-opacity="1" fill-rule="nonzero"/></svg>