<svg xmlns="http://www.w3.org/2000/svg" xmlns:xlink="http://www.w3.org/1999/xlink" width="1080" zoomAndPan="magnify" viewBox="0 0 810 809.999993" height="1080" preserveAspectRatio="xMidYMid meet" version="1.0"><defs><g/></defs><path fill="rgb(93.328857%, 52.549744%, 54.899597%)" d="M 757.324219 810 L 52.675781 810 C 23.648438 810 0 786.351562 0 757.324219 L 0 52.675781 C 0 23.648438 23.648438 0 52.675781 0 L 757.324219 0 C 786.351562 0 810 23.648438 810 52.675781 L 810 757.324219 C 810 786.351562 786.351562 810 757.324219 810 " fill-opacity="1" fill-rule="nonzero"/><g fill="rgb(100%, 100%, 100%)" fill-opacity="1"><g transform="translate(38.501186, 561.57174)"><g><path d="M 34.355469 0 L 254.152344 0 L 254.152344 -63.429688 L 103.070312 -63.429688 L 103.070312 -126.855469 L 238.296875 -126.855469 L 238.296875 -190.285156 L 103.070312 -190.285156 L 103.070312 -248.425781 L 246.226562 -248.425781 L 246.226562 -311.855469 L 34.355469 -311.855469 Z M 34.355469 0 "/></g></g></g><g fill="rgb(100%, 100%, 100%)" fill-opacity="1"><g transform="translate(315.999545, 561.57174)"><g><path d="M 91.617188 0 L 150.640625 0 L 219.355469 -215.832031 L 220.238281 -215.832031 L 288.953125 0 L 350.175781 0 L 441.355469 -311.855469 L 371.761719 -311.855469 L 319.34375 -106.59375 L 318.464844 -106.59375 L 253.714844 -311.855469 L 189.84375 -311.855469 L 124.652344 -111.878906 L 123.773438 -111.878906 L 74 -311.855469 L -0.882812 -311.855469 Z M 91.617188 0 "/></g></g></g></svg>