<svg xmlns="http://www.w3.org/2000/svg" xmlns:xlink="http://www.w3.org/1999/xlink" width="1080" zoomAndPan="magnify" viewBox="0 0 810 809.999993" height="1080" preserveAspectRatio="xMidYMid meet" version="1.0"><defs><clipPath id="id1"><path d="M 112.941406 112.941406 L 697.191406 112.941406 L 697.191406 697.191406 L 112.941406 697.191406 Z M 112.941406 112.941406 " clip-rule="nonzero"/></clipPath></defs><rect x="-81" width="972" fill="rgb(100%, 100%, 100%)" y="-80.999999" height="971.999992" fill-opacity="1"/><rect x="-81" width="972" fill="rgb(100%, 100%, 100%)" y="-80.999999" height="971.999992" fill-opacity="1"/><rect x="-81" width="972" fill="rgb(100%, 100%, 100%)" y="-80.999999" height="971.999992" fill-opacity="1"/><rect x="-81" width="972" fill="rgb(100%, 100%, 100%)" y="-80.999999" height="971.999992" fill-opacity="1"/><path fill="rgb(93.328857%, 52.549744%, 54.899597%)" d="M 188.328125 602.957031 L 207.175781 602.957031 L 207.175781 584.109375 L 188.328125 584.109375 L 188.328125 602.957031 " fill-opacity="1" fill-rule="nonzero"/><path fill="rgb(93.328857%, 52.549744%, 54.899597%)" d="M 150.632812 602.957031 L 169.480469 602.957031 L 169.480469 584.109375 L 150.632812 584.109375 L 150.632812 602.957031 " fill-opacity="1" fill-rule="nonzero"/><path fill="rgb(93.328857%, 52.549744%, 54.899597%)" d="M 226.019531 602.957031 L 244.867188 602.957031 L 244.867188 584.109375 L 226.019531 584.109375 L 226.019531 602.957031 " fill-opacity="1" fill-rule="nonzero"/><g clip-path="url(#id1)"><path fill="rgb(93.328857%, 52.549744%, 54.899597%)" d="M 650.074219 621.804688 L 160.058594 621.804688 C 144.449219 621.804688 131.789062 609.140625 131.789062 593.535156 L 131.789062 565.261719 L 261.507812 565.261719 L 299.199219 584.109375 L 678.34375 584.109375 L 678.34375 593.535156 C 678.34375 609.140625 665.679688 621.804688 650.074219 621.804688 Z M 508.722656 678.34375 L 301.410156 678.34375 L 301.410156 640.652344 L 508.722656 640.652344 Z M 188.328125 188.328125 L 188.328125 131.789062 L 621.804688 131.789062 L 621.804688 188.328125 Z M 650.074219 244.867188 L 640.652344 244.867188 L 640.652344 112.941406 L 169.480469 112.941406 L 169.480469 226.019531 L 188.328125 226.019531 L 188.328125 207.175781 L 621.804688 207.175781 L 621.804688 263.714844 L 650.074219 263.714844 C 665.679688 263.714844 678.34375 276.378906 678.34375 291.984375 L 678.34375 565.261719 L 303.617188 565.261719 L 265.921875 546.417969 L 131.789062 546.417969 L 131.789062 291.984375 C 131.789062 276.378906 144.449219 263.714844 160.058594 263.714844 L 169.480469 263.714844 L 169.480469 527.570312 L 640.652344 527.570312 L 640.652344 282.5625 L 621.804688 282.5625 L 621.804688 508.722656 L 188.328125 508.722656 L 188.328125 244.867188 L 160.058594 244.867188 C 134.070312 244.867188 112.941406 265.996094 112.941406 291.984375 L 112.941406 593.535156 C 112.941406 619.523438 134.070312 640.652344 160.058594 640.652344 L 282.5625 640.652344 L 282.5625 678.34375 L 244.867188 678.34375 L 244.867188 697.191406 L 565.261719 697.191406 L 565.261719 678.34375 L 527.570312 678.34375 L 527.570312 640.652344 L 650.074219 640.652344 C 676.0625 640.652344 697.191406 619.523438 697.191406 593.535156 L 697.191406 291.984375 C 697.191406 265.996094 676.0625 244.867188 650.074219 244.867188 " fill-opacity="1" fill-rule="nonzero"/></g><path fill="rgb(93.328857%, 52.549744%, 54.899597%)" d="M 207.175781 169.480469 L 226.019531 169.480469 L 226.019531 150.632812 L 207.175781 150.632812 L 207.175781 169.480469 " fill-opacity="1" fill-rule="nonzero"/><path fill="rgb(93.328857%, 52.549744%, 54.899597%)" d="M 244.867188 169.480469 L 263.714844 169.480469 L 263.714844 150.632812 L 244.867188 150.632812 L 244.867188 169.480469 " fill-opacity="1" fill-rule="nonzero"/><path fill="rgb(93.328857%, 52.549744%, 54.899597%)" d="M 282.5625 150.632812 L 282.5625 169.480469 L 301.410156 169.480469 L 301.410156 150.632812 L 282.5625 150.632812 " fill-opacity="1" fill-rule="nonzero"/><path fill="rgb(93.328857%, 52.549744%, 54.899597%)" d="M 263.714844 326.144531 C 263.714844 323.238281 264.15625 320.402344 265.078125 317.640625 L 289.335938 244.867188 L 336.78125 244.867188 L 320.4375 318.414062 L 316.832031 336.378906 C 314.328125 348.894531 303.285156 357.949219 290.550781 357.949219 C 275.75 357.949219 263.714844 345.910156 263.714844 331.113281 Z M 395.640625 244.867188 L 395.640625 319.335938 L 392.21875 336.378906 C 389.714844 348.894531 378.671875 357.949219 365.9375 357.949219 C 351.140625 357.949219 339.101562 345.910156 339.101562 331.113281 L 339.101562 322.722656 L 356.070312 244.867188 Z M 471.03125 321.285156 L 471.03125 331.113281 C 471.03125 345.910156 458.992188 357.949219 444.195312 357.949219 C 431.457031 357.949219 420.414062 348.894531 417.914062 336.378906 L 414.488281 319.335938 L 414.488281 244.867188 L 454.058594 244.867188 Z M 520.796875 244.867188 L 545.054688 317.640625 C 545.976562 320.402344 546.417969 323.238281 546.417969 326.144531 L 546.417969 331.113281 C 546.417969 345.910156 534.378906 357.949219 519.582031 357.949219 C 506.847656 357.949219 495.800781 348.894531 493.300781 336.378906 L 489.875 320.695312 L 489.875 320.253906 L 489.765625 320.253906 L 473.347656 244.867188 Z M 527.570312 471.03125 L 442.757812 471.03125 L 442.757812 395.640625 L 367.371094 395.640625 L 367.371094 471.03125 L 282.5625 471.03125 L 282.5625 375.984375 C 285.175781 376.464844 287.789062 376.796875 290.550781 376.796875 C 305.972656 376.796875 319.851562 368.882812 328.167969 356.734375 C 336.378906 368.84375 350.21875 376.796875 365.9375 376.796875 C 382.28125 376.796875 397.003906 368.035156 405.066406 354.597656 C 413.128906 368.035156 427.851562 376.796875 444.195312 376.796875 C 459.914062 376.796875 473.753906 368.84375 481.960938 356.734375 C 490.28125 368.917969 504.160156 376.796875 519.582031 376.796875 C 522.34375 376.796875 524.957031 376.464844 527.570312 375.984375 Z M 423.914062 471.03125 L 386.21875 471.03125 L 386.21875 414.488281 L 423.914062 414.488281 Z M 546.417969 489.875 L 546.417969 367.886719 C 557.789062 359.605469 565.261719 346.242188 565.261719 331.113281 L 565.261719 326.144531 C 565.261719 321.210938 564.453125 316.351562 562.90625 311.679688 L 534.34375 226.019531 L 275.789062 226.019531 L 247.222656 311.679688 C 245.679688 316.351562 244.867188 321.210938 244.867188 326.144531 L 244.867188 331.113281 C 244.867188 346.242188 252.339844 359.605469 263.714844 367.886719 L 263.714844 489.875 L 546.417969 489.875 " fill-opacity="1" fill-rule="nonzero"/></svg>