<svg xmlns="http://www.w3.org/2000/svg" xmlns:xlink="http://www.w3.org/1999/xlink" width="1080" zoomAndPan="magnify" viewBox="0 0 810 809.999993" height="1080" preserveAspectRatio="xMidYMid meet" version="1.0"><defs><clipPath id="id1"><path d="M 198.242188 111.207031 L 611.492188 111.207031 L 611.492188 698.457031 L 198.242188 698.457031 Z M 198.242188 111.207031 " clip-rule="nonzero"/></clipPath></defs><rect x="-81" width="972" fill="rgb(100%, 100%, 100%)" y="-80.999999" height="971.999992" fill-opacity="1"/><rect x="-81" width="972" fill="rgb(100%, 100%, 100%)" y="-80.999999" height="971.999992" fill-opacity="1"/><rect x="-81" width="972" fill="rgb(100%, 100%, 100%)" y="-80.999999" height="971.999992" fill-opacity="1"/><rect x="-81" width="972" fill="rgb(100%, 100%, 100%)" y="-80.999999" height="971.999992" fill-opacity="1"/><g clip-path="url(#id1)"><path fill="rgb(93.328857%, 52.549744%, 54.899597%)" d="M 220.449219 698.457031 L 589.289062 698.457031 C 601.675781 698.457031 611.308594 686.527344 611.308594 670.929688 L 611.308594 138.734375 C 611.308594 123.136719 601.675781 111.207031 589.289062 111.207031 L 220.449219 111.207031 C 208.0625 111.207031 198.425781 123.136719 198.425781 138.734375 L 198.425781 670.929688 C 198.425781 686.527344 208.0625 698.457031 220.449219 698.457031 Z M 216.777344 138.734375 C 216.777344 132.769531 219.53125 129.558594 220.449219 129.558594 L 589.289062 129.558594 C 590.207031 129.558594 592.960938 132.769531 592.960938 138.734375 L 592.960938 634.226562 L 216.777344 634.226562 Z M 216.777344 652.578125 L 592.960938 652.578125 L 592.960938 670.929688 C 592.960938 676.894531 590.207031 679.648438 589.289062 680.105469 L 220.449219 680.105469 C 219.53125 680.105469 216.777344 676.894531 216.777344 670.929688 Z M 216.777344 652.578125 " fill-opacity="1" fill-rule="nonzero"/></g><path fill="rgb(93.328857%, 52.549744%, 54.899597%)" d="M 556.257812 482.828125 L 372.753906 482.828125 C 367.710938 482.828125 363.582031 486.957031 363.582031 492.003906 C 363.582031 497.050781 367.710938 501.179688 372.753906 501.179688 L 556.257812 501.179688 C 561.304688 501.179688 565.433594 497.050781 565.433594 492.003906 C 565.433594 486.957031 561.304688 482.828125 556.257812 482.828125 Z M 556.257812 482.828125 " fill-opacity="1" fill-rule="nonzero"/><path fill="rgb(93.328857%, 52.549744%, 54.899597%)" d="M 258.066406 501.179688 L 303.941406 501.179688 C 308.988281 501.179688 313.117188 497.050781 313.117188 492.003906 C 313.117188 486.957031 308.988281 482.828125 303.941406 482.828125 L 258.066406 482.828125 C 253.019531 482.828125 248.890625 486.957031 248.890625 492.003906 C 248.890625 497.050781 253.019531 501.179688 258.066406 501.179688 Z M 258.066406 501.179688 " fill-opacity="1" fill-rule="nonzero"/><path fill="rgb(93.328857%, 52.549744%, 54.899597%)" d="M 556.257812 528.707031 L 455.332031 528.707031 C 450.285156 528.707031 446.15625 532.835938 446.15625 537.882812 C 446.15625 542.929688 450.285156 547.058594 455.332031 547.058594 L 556.257812 547.058594 C 561.304688 547.058594 565.433594 542.929688 565.433594 537.882812 C 565.433594 532.835938 561.304688 528.707031 556.257812 528.707031 Z M 556.257812 528.707031 " fill-opacity="1" fill-rule="nonzero"/><path fill="rgb(93.328857%, 52.549744%, 54.899597%)" d="M 253.476562 547.058594 L 391.105469 547.058594 C 396.152344 547.058594 400.28125 542.929688 400.28125 537.882812 C 400.28125 532.835938 396.152344 528.707031 391.105469 528.707031 L 253.476562 528.707031 C 248.433594 528.707031 244.304688 532.835938 244.304688 537.882812 C 244.304688 542.929688 248.433594 547.058594 253.476562 547.058594 Z M 253.476562 547.058594 " fill-opacity="1" fill-rule="nonzero"/><path fill="rgb(93.328857%, 52.549744%, 54.899597%)" d="M 556.257812 574.585938 L 391.105469 574.585938 C 386.058594 574.585938 381.929688 578.714844 381.929688 583.761719 C 381.929688 588.808594 386.058594 592.9375 391.105469 592.9375 L 556.257812 592.9375 C 561.304688 592.9375 565.433594 588.808594 565.433594 583.761719 C 565.433594 578.714844 561.304688 574.585938 556.257812 574.585938 Z M 556.257812 574.585938 " fill-opacity="1" fill-rule="nonzero"/><path fill="rgb(93.328857%, 52.549744%, 54.899597%)" d="M 290.179688 574.585938 L 253.476562 574.585938 C 248.433594 574.585938 244.304688 578.714844 244.304688 583.761719 C 244.304688 588.808594 248.433594 592.9375 253.476562 592.9375 L 290.179688 592.9375 C 295.226562 592.9375 299.355469 588.808594 299.355469 583.761719 C 299.355469 578.714844 295.226562 574.585938 290.179688 574.585938 Z M 290.179688 574.585938 " fill-opacity="1" fill-rule="nonzero"/><path fill="rgb(93.328857%, 52.549744%, 54.899597%)" d="M 404.867188 432.359375 C 478.269531 432.359375 537.910156 372.71875 537.910156 299.3125 C 537.910156 225.90625 478.269531 166.261719 404.867188 166.261719 C 331.46875 166.261719 271.828125 225.90625 271.828125 299.3125 C 271.828125 372.71875 331.46875 432.359375 404.867188 432.359375 Z M 404.867188 184.613281 C 468.175781 184.613281 519.558594 236 519.558594 299.3125 C 519.558594 362.625 468.175781 414.007812 404.867188 414.007812 C 341.558594 414.007812 290.179688 362.625 290.179688 299.3125 C 290.179688 236 341.558594 184.613281 404.867188 184.613281 Z M 404.867188 184.613281 " fill-opacity="1" fill-rule="nonzero"/><path fill="rgb(93.328857%, 52.549744%, 54.899597%)" d="M 345.230469 377.304688 L 464.507812 377.304688 C 469.554688 377.304688 473.683594 373.175781 473.683594 368.128906 L 473.683594 299.769531 C 473.683594 289.21875 465.425781 280.042969 454.414062 277.289062 C 449.828125 284.171875 443.40625 290.136719 436.523438 294.722656 C 438.359375 293.804688 444.78125 294.265625 447.074219 294.265625 C 449.828125 294.722656 455.332031 295.640625 455.332031 299.3125 L 455.332031 358.953125 L 354.40625 358.953125 L 354.40625 299.769531 C 354.40625 297.476562 357.617188 294.722656 361.746094 294.722656 L 373.214844 294.722656 C 365.875 290.136719 359.910156 284.171875 355.324219 277.289062 C 344.3125 280.042969 336.054688 288.757812 336.054688 299.769531 L 336.054688 368.128906 C 336.054688 373.175781 340.183594 377.304688 345.230469 377.304688 Z M 345.230469 377.304688 " fill-opacity="1" fill-rule="nonzero"/><path fill="rgb(93.328857%, 52.549744%, 54.899597%)" d="M 404.867188 285.546875 C 427.804688 285.546875 446.15625 267.195312 446.15625 244.257812 C 446.15625 221.316406 427.804688 202.964844 404.867188 202.964844 C 381.929688 202.964844 363.582031 221.316406 363.582031 244.257812 C 363.582031 267.195312 381.929688 285.546875 404.867188 285.546875 Z M 404.867188 221.316406 C 417.714844 221.316406 427.804688 231.410156 427.804688 244.257812 C 427.804688 257.101562 417.714844 267.195312 404.867188 267.195312 C 392.023438 267.195312 381.929688 257.101562 381.929688 244.257812 C 381.929688 231.410156 392.023438 221.316406 404.867188 221.316406 Z M 404.867188 221.316406 " fill-opacity="1" fill-rule="nonzero"/></svg>