<svg xmlns="http://www.w3.org/2000/svg" xmlns:xlink="http://www.w3.org/1999/xlink" width="1080" zoomAndPan="magnify" viewBox="0 0 810 809.999993" height="1080" preserveAspectRatio="xMidYMid meet" version="1.0"><defs><clipPath id="id1"><path d="M 555.328125 657.175781 L 566.582031 657.175781 L 566.582031 684.921875 L 555.328125 684.921875 Z M 555.328125 657.175781 " clip-rule="nonzero"/></clipPath><clipPath id="id2"><path d="M 156 125.433594 L 168 125.433594 L 168 153 L 156 153 Z M 156 125.433594 " clip-rule="nonzero"/></clipPath><clipPath id="id3"><path d="M 123.320312 158 L 151 158 L 151 170 L 123.320312 170 Z M 123.320312 158 " clip-rule="nonzero"/></clipPath><clipPath id="id4"><path d="M 128 203 L 686.570312 203 L 686.570312 606 L 128 606 Z M 128 203 " clip-rule="nonzero"/></clipPath></defs><rect x="-81" width="972" fill="rgb(100%, 100%, 100%)" y="-80.999999" height="971.999992" fill-opacity="1"/><rect x="-81" width="972" fill="rgb(100%, 100%, 100%)" y="-80.999999" height="971.999992" fill-opacity="1"/><rect x="-81" width="972" fill="rgb(100%, 100%, 100%)" y="-80.999999" height="971.999992" fill-opacity="1"/><rect x="-81" width="972" fill="rgb(100%, 100%, 100%)" y="-80.999999" height="971.999992" fill-opacity="1"/><path fill="rgb(93.328857%, 52.549744%, 54.899597%)" d="M 637.0625 158.925781 C 640.117188 158.925781 642.585938 156.457031 642.585938 153.398438 L 642.585938 136.980469 C 642.585938 133.929688 640.117188 131.460938 637.0625 131.460938 C 634.015625 131.460938 631.546875 133.929688 631.546875 136.980469 L 631.546875 153.398438 C 631.546875 156.457031 634.015625 158.925781 637.0625 158.925781 " fill-opacity="1" fill-rule="nonzero"/><path fill="rgb(93.328857%, 52.549744%, 54.899597%)" d="M 637.0625 208.207031 C 640.117188 208.207031 642.585938 205.734375 642.585938 202.683594 L 642.585938 186.253906 C 642.585938 183.203125 640.117188 180.734375 637.0625 180.734375 C 634.015625 180.734375 631.546875 183.203125 631.546875 186.253906 L 631.546875 202.683594 C 631.546875 205.734375 634.015625 208.207031 637.0625 208.207031 " fill-opacity="1" fill-rule="nonzero"/><path fill="rgb(93.328857%, 52.549744%, 54.899597%)" d="M 653.480469 175.351562 L 669.886719 175.351562 C 672.933594 175.351562 675.402344 172.878906 675.402344 169.828125 C 675.402344 166.773438 672.933594 164.304688 669.886719 164.304688 L 653.480469 164.304688 C 650.425781 164.304688 647.960938 166.773438 647.960938 169.828125 C 647.960938 172.878906 650.425781 175.351562 653.480469 175.351562 " fill-opacity="1" fill-rule="nonzero"/><path fill="rgb(93.328857%, 52.549744%, 54.899597%)" d="M 604.242188 175.351562 L 620.652344 175.351562 C 623.707031 175.351562 626.167969 172.878906 626.167969 169.828125 C 626.167969 166.773438 623.707031 164.304688 620.652344 164.304688 L 604.242188 164.304688 C 601.1875 164.304688 598.722656 166.773438 598.722656 169.828125 C 598.722656 172.878906 601.1875 175.351562 604.242188 175.351562 " fill-opacity="1" fill-rule="nonzero"/><path fill="rgb(93.328857%, 52.549744%, 54.899597%)" d="M 374.472656 208.207031 C 377.527344 208.207031 379.992188 205.734375 379.992188 202.683594 L 379.992188 186.253906 C 379.992188 183.203125 377.527344 180.734375 374.472656 180.734375 C 371.425781 180.734375 368.957031 183.203125 368.957031 186.253906 L 368.957031 202.683594 C 368.957031 205.734375 371.425781 208.207031 374.472656 208.207031 " fill-opacity="1" fill-rule="nonzero"/><path fill="rgb(93.328857%, 52.549744%, 54.899597%)" d="M 374.472656 257.480469 C 377.527344 257.480469 379.992188 255.011719 379.992188 251.957031 L 379.992188 235.53125 C 379.992188 232.480469 377.527344 230.007812 374.472656 230.007812 C 371.425781 230.007812 368.957031 232.480469 368.957031 235.53125 L 368.957031 251.957031 C 368.957031 255.011719 371.425781 257.480469 374.472656 257.480469 " fill-opacity="1" fill-rule="nonzero"/><path fill="rgb(93.328857%, 52.549744%, 54.899597%)" d="M 390.886719 224.628906 L 407.300781 224.628906 C 410.351562 224.628906 412.820312 222.160156 412.820312 219.109375 C 412.820312 216.058594 410.351562 213.589844 407.300781 213.589844 L 390.886719 213.589844 C 387.839844 213.589844 385.371094 216.058594 385.371094 219.109375 C 385.371094 222.160156 387.839844 224.628906 390.886719 224.628906 " fill-opacity="1" fill-rule="nonzero"/><path fill="rgb(93.328857%, 52.549744%, 54.899597%)" d="M 341.648438 224.628906 L 358.0625 224.628906 C 361.113281 224.628906 363.582031 222.160156 363.582031 219.109375 C 363.582031 216.058594 361.113281 213.589844 358.0625 213.589844 L 341.648438 213.589844 C 338.601562 213.589844 336.132812 216.058594 336.132812 219.109375 C 336.132812 222.160156 338.601562 224.628906 341.648438 224.628906 " fill-opacity="1" fill-rule="nonzero"/><path fill="rgb(93.328857%, 52.549744%, 54.899597%)" d="M 560.960938 608.175781 C 557.910156 608.175781 555.441406 610.644531 555.441406 613.699219 L 555.441406 630.125 C 555.441406 633.175781 557.910156 635.644531 560.960938 635.644531 C 564.011719 635.644531 566.480469 633.175781 566.480469 630.125 L 566.480469 613.699219 C 566.480469 610.644531 564.011719 608.175781 560.960938 608.175781 " fill-opacity="1" fill-rule="nonzero"/><g clip-path="url(#id1)"><path fill="rgb(93.328857%, 52.549744%, 54.899597%)" d="M 560.960938 657.449219 C 557.910156 657.449219 555.441406 659.917969 555.441406 662.976562 L 555.441406 679.402344 C 555.441406 682.449219 557.910156 684.921875 560.960938 684.921875 C 564.011719 684.921875 566.480469 682.449219 566.480469 679.402344 L 566.480469 662.976562 C 566.480469 659.917969 564.011719 657.449219 560.960938 657.449219 " fill-opacity="1" fill-rule="nonzero"/></g><path fill="rgb(93.328857%, 52.549744%, 54.899597%)" d="M 593.789062 641.023438 L 577.371094 641.023438 C 574.324219 641.023438 571.855469 643.496094 571.855469 646.546875 C 571.855469 649.601562 574.324219 652.070312 577.371094 652.070312 L 593.789062 652.070312 C 596.835938 652.070312 599.304688 649.601562 599.304688 646.546875 C 599.304688 643.496094 596.835938 641.023438 593.789062 641.023438 " fill-opacity="1" fill-rule="nonzero"/><path fill="rgb(93.328857%, 52.549744%, 54.899597%)" d="M 544.554688 641.023438 L 528.140625 641.023438 C 525.089844 641.023438 522.625 643.496094 522.625 646.546875 C 522.625 649.601562 525.089844 652.070312 528.140625 652.070312 L 544.554688 652.070312 C 547.601562 652.070312 550.070312 649.601562 550.070312 646.546875 C 550.070312 643.496094 547.601562 641.023438 544.554688 641.023438 " fill-opacity="1" fill-rule="nonzero"/><path fill="rgb(93.328857%, 52.549744%, 54.899597%)" d="M 511.726562 177.539062 C 514.777344 177.539062 517.246094 175.070312 517.246094 172.019531 L 517.246094 155.59375 C 517.246094 152.542969 514.777344 150.074219 511.726562 150.074219 C 508.679688 150.074219 506.207031 152.542969 506.207031 155.59375 L 506.207031 172.019531 C 506.207031 175.070312 508.679688 177.539062 511.726562 177.539062 " fill-opacity="1" fill-rule="nonzero"/><path fill="rgb(93.328857%, 52.549744%, 54.899597%)" d="M 511.726562 226.820312 C 514.777344 226.820312 517.246094 224.351562 517.246094 221.300781 L 517.246094 204.871094 C 517.246094 201.820312 514.777344 199.351562 511.726562 199.351562 C 508.679688 199.351562 506.207031 201.820312 506.207031 204.871094 L 506.207031 221.300781 C 506.207031 224.351562 508.679688 226.820312 511.726562 226.820312 " fill-opacity="1" fill-rule="nonzero"/><path fill="rgb(93.328857%, 52.549744%, 54.899597%)" d="M 528.140625 193.964844 L 544.554688 193.964844 C 547.601562 193.964844 550.070312 191.5 550.070312 188.445312 C 550.070312 185.394531 547.601562 182.925781 544.554688 182.925781 L 528.140625 182.925781 C 525.089844 182.925781 522.625 185.394531 522.625 188.445312 C 522.625 191.5 525.089844 193.964844 528.140625 193.964844 " fill-opacity="1" fill-rule="nonzero"/><path fill="rgb(93.328857%, 52.549744%, 54.899597%)" d="M 478.902344 193.964844 L 495.316406 193.964844 C 498.363281 193.964844 500.832031 191.5 500.832031 188.445312 C 500.832031 185.394531 498.363281 182.925781 495.316406 182.925781 L 478.902344 182.925781 C 475.851562 182.925781 473.386719 185.394531 473.386719 188.445312 C 473.386719 191.5 475.851562 193.964844 478.902344 193.964844 " fill-opacity="1" fill-rule="nonzero"/><path fill="rgb(93.328857%, 52.549744%, 54.899597%)" d="M 178.296875 583.53125 C 175.246094 583.53125 172.777344 586.003906 172.777344 589.058594 L 172.777344 605.484375 C 172.777344 608.535156 175.246094 611.007812 178.296875 611.007812 C 181.347656 611.007812 183.8125 608.535156 183.8125 605.484375 L 183.8125 589.058594 C 183.8125 586.003906 181.347656 583.53125 178.296875 583.53125 " fill-opacity="1" fill-rule="nonzero"/><path fill="rgb(93.328857%, 52.549744%, 54.899597%)" d="M 178.296875 632.816406 C 175.246094 632.816406 172.777344 635.289062 172.777344 638.339844 L 172.777344 654.761719 C 172.777344 657.8125 175.246094 660.28125 178.296875 660.28125 C 181.347656 660.28125 183.8125 657.8125 183.8125 654.761719 L 183.8125 638.339844 C 183.8125 635.289062 181.347656 632.816406 178.296875 632.816406 " fill-opacity="1" fill-rule="nonzero"/><path fill="rgb(93.328857%, 52.549744%, 54.899597%)" d="M 211.121094 616.386719 L 194.710938 616.386719 C 191.660156 616.386719 189.191406 618.859375 189.191406 621.910156 C 189.191406 624.964844 191.660156 627.433594 194.710938 627.433594 L 211.121094 627.433594 C 214.171875 627.433594 216.640625 624.964844 216.640625 621.910156 C 216.640625 618.859375 214.171875 616.386719 211.121094 616.386719 " fill-opacity="1" fill-rule="nonzero"/><path fill="rgb(93.328857%, 52.549744%, 54.899597%)" d="M 161.890625 616.386719 L 145.476562 616.386719 C 142.425781 616.386719 139.957031 618.859375 139.957031 621.910156 C 139.957031 624.964844 142.425781 627.433594 145.476562 627.433594 L 161.890625 627.433594 C 164.9375 627.433594 167.40625 624.964844 167.40625 621.910156 C 167.40625 618.859375 164.9375 616.386719 161.890625 616.386719 " fill-opacity="1" fill-rule="nonzero"/><g clip-path="url(#id2)"><path fill="rgb(93.328857%, 52.549744%, 54.899597%)" d="M 161.890625 152.90625 C 164.9375 152.90625 167.40625 150.433594 167.40625 147.382812 L 167.40625 130.953125 C 167.40625 127.902344 164.9375 125.433594 161.890625 125.433594 C 158.839844 125.433594 156.371094 127.902344 156.371094 130.953125 L 156.371094 147.382812 C 156.371094 150.433594 158.839844 152.90625 161.890625 152.90625 " fill-opacity="1" fill-rule="nonzero"/></g><path fill="rgb(93.328857%, 52.549744%, 54.899597%)" d="M 161.890625 202.179688 C 164.9375 202.179688 167.40625 199.710938 167.40625 196.660156 L 167.40625 180.230469 C 167.40625 177.179688 164.9375 174.710938 161.890625 174.710938 C 158.839844 174.710938 156.371094 177.179688 156.371094 180.230469 L 156.371094 196.660156 C 156.371094 199.710938 158.839844 202.179688 161.890625 202.179688 " fill-opacity="1" fill-rule="nonzero"/><path fill="rgb(93.328857%, 52.549744%, 54.899597%)" d="M 178.296875 169.335938 L 194.710938 169.335938 C 197.757812 169.335938 200.226562 166.859375 200.226562 163.808594 C 200.226562 160.757812 197.757812 158.289062 194.710938 158.289062 L 178.296875 158.289062 C 175.246094 158.289062 172.777344 160.757812 172.777344 163.808594 C 172.777344 166.859375 175.246094 169.335938 178.296875 169.335938 " fill-opacity="1" fill-rule="nonzero"/><g clip-path="url(#id3)"><path fill="rgb(93.328857%, 52.549744%, 54.899597%)" d="M 145.476562 169.335938 C 148.523438 169.335938 150.992188 166.859375 150.992188 163.808594 C 150.992188 160.757812 148.523438 158.289062 145.476562 158.289062 L 129.0625 158.289062 C 126.011719 158.289062 123.546875 160.757812 123.546875 163.808594 C 123.546875 166.859375 126.011719 169.335938 129.0625 169.335938 L 145.476562 169.335938 " fill-opacity="1" fill-rule="nonzero"/></g><g clip-path="url(#id4)"><path fill="rgb(93.328857%, 52.549744%, 54.899597%)" d="M 287.027344 389.558594 L 269.367188 390.433594 C 266.535156 390.574219 264.265625 392.84375 264.128906 395.675781 L 263.253906 413.355469 L 229.5 379.574219 L 241.3125 383.046875 C 241.824219 383.191406 242.347656 383.265625 242.863281 383.265625 C 244.4375 383.265625 245.96875 382.59375 247.035156 381.359375 L 261.792969 364.304688 Z M 233.273438 398.96875 L 264.246094 429.96875 C 265.300781 431.027344 266.707031 431.589844 268.148438 431.589844 C 268.816406 431.589844 269.488281 431.46875 270.128906 431.214844 C 272.167969 430.433594 273.550781 428.519531 273.660156 426.339844 L 274.902344 401.21875 L 300.003906 399.980469 C 302.179688 399.871094 304.09375 398.484375 304.875 396.445312 C 305.660156 394.414062 305.171875 392.101562 303.628906 390.558594 L 273.410156 360.3125 L 285.082031 356.882812 C 287.15625 356.273438 288.683594 354.511719 288.996094 352.371094 L 292.351562 329.011719 L 307.785156 311.191406 C 309.195312 309.554688 309.53125 307.242188 308.628906 305.277344 L 308.019531 303.9375 L 637.910156 303.9375 C 642.589844 303.9375 646.394531 307.742188 646.394531 312.421875 L 646.394531 557.003906 C 646.394531 561.6875 642.589844 565.496094 637.910156 565.496094 L 241.753906 565.496094 C 237.078125 565.496094 233.273438 561.6875 233.273438 557.003906 Z M 155.730469 325.835938 C 155.578125 324.792969 155.128906 323.808594 154.4375 323.003906 L 140.257812 306.636719 L 149.246094 286.925781 C 149.6875 285.964844 149.84375 284.898438 149.695312 283.84375 L 146.609375 262.410156 L 164.824219 250.691406 C 165.714844 250.117188 166.421875 249.304688 166.855469 248.339844 L 175.851562 228.632812 L 197.5 228.632812 C 198.554688 228.632812 199.597656 228.332031 200.484375 227.753906 L 218.691406 216.042969 L 236.902344 227.753906 C 237.789062 228.332031 238.828125 228.632812 239.886719 228.632812 L 261.53125 228.632812 L 270.523438 248.339844 C 270.960938 249.304688 271.664062 250.117188 272.554688 250.691406 L 290.773438 262.410156 L 287.683594 283.84375 C 287.535156 284.894531 287.691406 285.964844 288.132812 286.925781 L 297.121094 306.636719 L 282.949219 323.003906 C 282.257812 323.808594 281.808594 324.792969 281.65625 325.835938 L 278.574219 347.285156 L 257.804688 353.386719 C 256.789062 353.6875 255.882812 354.269531 255.1875 355.070312 L 241.015625 371.445312 L 220.246094 365.339844 C 219.230469 365.046875 218.152344 365.046875 217.140625 365.339844 L 196.367188 371.445312 L 182.191406 355.066406 C 181.496094 354.269531 180.59375 353.6875 179.574219 353.386719 L 158.804688 347.285156 Z M 173.257812 395.675781 C 173.117188 392.84375 170.851562 390.574219 168.019531 390.433594 L 150.359375 389.558594 L 175.585938 364.308594 L 190.351562 381.363281 C 191.773438 382.996094 194.011719 383.632812 196.074219 383.046875 L 207.886719 379.574219 L 174.128906 413.355469 Z M 675.3125 585.949219 C 675.3125 590.628906 671.507812 594.4375 666.828125 594.4375 L 212.835938 594.4375 C 208.15625 594.4375 204.355469 590.628906 204.355469 585.949219 L 204.355469 398.726562 L 218.691406 384.378906 L 222.238281 387.925781 L 222.238281 557.003906 C 222.238281 567.777344 230.996094 576.539062 241.753906 576.539062 L 637.910156 576.539062 C 648.671875 576.539062 657.429688 567.777344 657.429688 557.003906 L 657.429688 312.421875 C 657.429688 301.652344 648.671875 292.890625 637.910156 292.890625 L 302.980469 292.890625 L 298.839844 283.816406 L 300.109375 274.992188 L 666.828125 274.992188 C 671.507812 274.992188 675.3125 278.800781 675.3125 283.480469 Z M 666.828125 263.949219 L 301.699219 263.949219 L 302.203125 260.46875 C 302.507812 258.328125 301.539062 256.203125 299.722656 255.039062 L 279.886719 242.277344 L 270.09375 220.820312 C 269.195312 218.851562 267.238281 217.59375 265.074219 217.59375 L 241.507812 217.59375 L 221.675781 204.835938 C 219.855469 203.660156 217.527344 203.660156 215.707031 204.835938 L 195.878906 217.59375 L 172.304688 217.59375 C 170.144531 217.59375 168.183594 218.851562 167.289062 220.820312 L 157.492188 242.277344 L 137.664062 255.039062 C 135.847656 256.203125 134.875 258.328125 135.183594 260.46875 L 138.539062 283.816406 L 128.75 305.277344 C 127.851562 307.242188 128.183594 309.554688 129.597656 311.191406 L 145.035156 329.011719 L 148.382812 352.371094 C 148.691406 354.511719 150.222656 356.273438 152.296875 356.882812 L 163.972656 360.3125 L 133.753906 390.558594 C 132.214844 392.101562 131.726562 394.414062 132.511719 396.445312 C 133.292969 398.484375 135.207031 399.871094 137.382812 399.980469 L 162.480469 401.21875 L 163.71875 426.339844 C 163.828125 428.519531 165.210938 430.433594 167.25 431.214844 C 167.890625 431.46875 168.5625 431.589844 169.234375 431.589844 C 170.671875 431.589844 172.078125 431.027344 173.132812 429.96875 L 193.320312 409.769531 L 193.320312 585.949219 C 193.320312 596.71875 202.074219 605.484375 212.835938 605.484375 L 666.828125 605.484375 C 677.589844 605.484375 686.347656 596.71875 686.347656 585.949219 L 686.347656 283.480469 C 686.347656 272.710938 677.589844 263.949219 666.828125 263.949219 " fill-opacity="1" fill-rule="nonzero"/></g><path fill="rgb(93.328857%, 52.549744%, 54.899597%)" d="M 327.769531 474.609375 L 551.898438 474.609375 C 554.949219 474.609375 557.414062 472.136719 557.414062 469.085938 C 557.414062 466.03125 554.949219 463.5625 551.898438 463.5625 L 327.769531 463.5625 C 324.71875 463.5625 322.25 466.03125 322.25 469.085938 C 322.25 472.136719 324.71875 474.609375 327.769531 474.609375 " fill-opacity="1" fill-rule="nonzero"/><path fill="rgb(93.328857%, 52.549744%, 54.899597%)" d="M 265.410156 507.773438 L 614.253906 507.773438 C 617.308594 507.773438 619.773438 505.304688 619.773438 502.25 C 619.773438 499.199219 617.308594 496.730469 614.253906 496.730469 L 265.410156 496.730469 C 262.359375 496.730469 259.890625 499.199219 259.890625 502.25 C 259.890625 505.304688 262.359375 507.773438 265.410156 507.773438 " fill-opacity="1" fill-rule="nonzero"/><path fill="rgb(93.328857%, 52.549744%, 54.899597%)" d="M 265.410156 540.941406 L 614.253906 540.941406 C 617.308594 540.941406 619.773438 538.46875 619.773438 535.417969 C 619.773438 532.367188 617.308594 529.894531 614.253906 529.894531 L 265.410156 529.894531 C 262.359375 529.894531 259.890625 532.367188 259.890625 535.417969 C 259.890625 538.46875 262.359375 540.941406 265.410156 540.941406 " fill-opacity="1" fill-rule="nonzero"/><path fill="rgb(93.328857%, 52.549744%, 54.899597%)" d="M 253.566406 293.613281 C 253.566406 312.863281 237.925781 328.519531 218.691406 328.519531 C 199.460938 328.519531 183.8125 312.863281 183.8125 293.613281 C 183.8125 274.367188 199.460938 258.707031 218.691406 258.707031 C 237.925781 258.707031 253.566406 274.367188 253.566406 293.613281 Z M 218.691406 339.5625 C 244.007812 339.5625 264.601562 318.949219 264.601562 293.613281 C 264.601562 268.277344 244.007812 247.660156 218.691406 247.660156 C 193.375 247.660156 172.777344 268.277344 172.777344 293.613281 C 172.777344 318.949219 193.375 339.5625 218.691406 339.5625 " fill-opacity="1" fill-rule="nonzero"/><path fill="rgb(93.328857%, 52.549744%, 54.899597%)" d="M 449.976562 390.207031 C 451.539062 390.6875 452.890625 391.28125 453.992188 391.964844 C 455.015625 392.605469 455.8125 393.371094 456.347656 394.234375 C 456.851562 395.066406 457.109375 396.152344 457.109375 397.453125 C 457.109375 398.929688 456.804688 400.195312 456.207031 401.21875 C 455.574219 402.292969 454.707031 403.230469 453.625 404.003906 C 452.507812 404.8125 451.167969 405.46875 449.625 405.964844 C 448.511719 406.328125 447.320312 406.640625 446.082031 406.902344 L 446.082031 389.21875 C 447.480469 389.511719 448.785156 389.84375 449.976562 390.207031 Z M 422.550781 364.40625 C 422.550781 359.371094 425.84375 356.324219 432.609375 355.125 L 432.609375 372.871094 C 429.28125 372.121094 426.765625 371.132812 425.117188 369.914062 C 423.390625 368.636719 422.550781 366.835938 422.550781 364.40625 Z M 415.675781 381.636719 C 418.195312 383.28125 421.085938 384.546875 424.265625 385.386719 C 426.945312 386.101562 429.75 386.726562 432.609375 387.246094 L 432.609375 407.921875 C 429.609375 407.890625 426.566406 407.664062 423.550781 407.25 C 420.238281 406.789062 417.40625 406.246094 415.125 405.621094 C 412.835938 405 410.804688 404.359375 409.082031 403.710938 C 408.667969 403.566406 408.195312 403.621094 407.8125 403.871094 C 407.441406 404.125 407.21875 404.550781 407.21875 405.007812 L 407.21875 416.210938 C 407.21875 416.734375 407.515625 417.214844 407.984375 417.449219 C 409.15625 418.03125 410.65625 418.570312 412.582031 419.085938 C 414.441406 419.582031 416.550781 420.03125 418.835938 420.410156 C 421.117188 420.796875 423.601562 421.097656 426.214844 421.320312 C 428.339844 421.5 430.488281 421.605469 432.609375 421.636719 L 432.609375 428.390625 C 432.609375 429.148438 433.230469 429.769531 433.988281 429.769531 L 444.703125 429.769531 C 445.460938 429.769531 446.082031 429.148438 446.082031 428.390625 L 446.082031 420.820312 C 449.757812 420.253906 453.132812 419.398438 456.136719 418.277344 C 459.503906 417.011719 462.445312 415.375 464.871094 413.429688 C 467.34375 411.445312 469.273438 409.078125 470.597656 406.386719 C 471.933594 403.695312 472.609375 400.660156 472.609375 397.375 C 472.609375 393.28125 471.757812 389.851562 470.085938 387.183594 C 468.4375 384.550781 466.238281 382.375 463.554688 380.726562 C 460.929688 379.113281 457.941406 377.863281 454.671875 377 C 451.855469 376.25 448.972656 375.59375 446.082031 375.035156 L 446.082031 354.664062 C 449.792969 354.90625 453.269531 355.359375 456.421875 356.015625 C 460.035156 356.769531 463.550781 357.664062 466.851562 358.664062 C 467.253906 358.769531 467.714844 358.714844 468.074219 358.453125 C 468.425781 358.1875 468.632812 357.777344 468.632812 357.34375 L 468.632812 346.054688 C 468.632812 345.460938 468.253906 344.933594 467.6875 344.746094 C 464.578125 343.707031 461.0625 342.839844 457.222656 342.175781 C 453.804688 341.585938 450.058594 341.167969 446.082031 340.933594 L 446.082031 334.039062 C 446.082031 333.277344 445.460938 332.65625 444.703125 332.65625 L 433.988281 332.65625 C 433.230469 332.65625 432.609375 333.277344 432.609375 334.039062 L 432.609375 341.253906 C 429.253906 341.679688 426.089844 342.453125 423.195312 343.546875 C 419.929688 344.789062 417.078125 346.425781 414.726562 348.414062 C 412.339844 350.429688 410.449219 352.84375 409.101562 355.597656 C 407.742188 358.378906 407.058594 361.503906 407.058594 364.894531 C 407.058594 368.96875 407.855469 372.398438 409.433594 375.097656 C 411.003906 377.761719 413.105469 379.960938 415.675781 381.636719 " fill-opacity="1" fill-rule="nonzero"/></svg>