<svg xmlns="http://www.w3.org/2000/svg" xmlns:xlink="http://www.w3.org/1999/xlink" width="1080" zoomAndPan="magnify" viewBox="0 0 810 809.999993" height="1080" preserveAspectRatio="xMidYMid meet" version="1.0"><defs><clipPath id="id1"><path d="M 121.5 121.5 L 688.5 121.5 L 688.5 688.5 L 121.5 688.5 Z M 121.5 121.5 " clip-rule="nonzero"/></clipPath></defs><rect x="-81" width="972" fill="rgb(100%, 100%, 100%)" y="-80.999999" height="971.999992" fill-opacity="1"/><rect x="-81" width="972" fill="rgb(100%, 100%, 100%)" y="-80.999999" height="971.999992" fill-opacity="1"/><rect x="-81" width="972" fill="rgb(100%, 100%, 100%)" y="-80.999999" height="971.999992" fill-opacity="1"/><rect x="-81" width="972" fill="rgb(100%, 100%, 100%)" y="-80.999999" height="971.999992" fill-opacity="1"/><path fill="rgb(93.328857%, 52.549744%, 54.899597%)" d="M 386.101562 226.703125 L 386.101562 186.394531 L 416.332031 206.550781 Z M 442.800781 206.550781 C 442.800781 203.375 441.210938 200.421875 438.589844 198.6875 L 381.890625 160.886719 C 378.976562 158.96875 375.246094 158.785156 372.183594 160.40625 C 369.121094 162.070312 367.199219 165.28125 367.199219 168.75 L 367.199219 244.351562 C 367.199219 247.820312 369.121094 251.03125 372.183594 252.691406 C 373.585938 253.429688 375.136719 253.800781 376.648438 253.800781 C 378.496094 253.800781 380.304688 253.285156 381.890625 252.210938 L 438.589844 214.414062 C 441.210938 212.679688 442.800781 209.726562 442.800781 206.550781 " fill-opacity="1" fill-rule="nonzero"/><path fill="rgb(93.328857%, 52.549744%, 54.899597%)" d="M 556.199219 197.101562 L 575.101562 197.101562 L 575.101562 178.199219 L 556.199219 178.199219 L 556.199219 197.101562 " fill-opacity="1" fill-rule="nonzero"/><path fill="rgb(93.328857%, 52.549744%, 54.899597%)" d="M 556.199219 272.699219 L 575.101562 272.699219 L 575.101562 206.550781 L 556.199219 206.550781 L 556.199219 272.699219 " fill-opacity="1" fill-rule="nonzero"/><path fill="rgb(93.328857%, 52.549744%, 54.899597%)" d="M 650.699219 272.699219 L 650.699219 239.625 C 650.699219 221.390625 635.859375 206.550781 617.625 206.550781 C 612.53125 206.550781 607.769531 207.804688 603.449219 209.871094 L 603.449219 206.550781 L 584.550781 206.550781 L 584.550781 272.699219 L 603.449219 272.699219 L 603.449219 239.625 C 603.449219 231.800781 609.800781 225.449219 617.625 225.449219 C 625.449219 225.449219 631.800781 231.800781 631.800781 239.625 L 631.800781 272.699219 L 650.699219 272.699219 " fill-opacity="1" fill-rule="nonzero"/><g clip-path="url(#id1)"><path fill="rgb(93.328857%, 52.549744%, 54.899597%)" d="M 612.898438 395.550781 C 618.105469 395.550781 622.351562 399.796875 622.351562 405 L 622.351562 631.800781 L 187.648438 631.800781 L 187.648438 405 C 187.648438 399.796875 191.894531 395.550781 197.101562 395.550781 L 301.050781 395.550781 L 301.050781 452.25 L 282.148438 452.25 C 261.292969 452.25 244.351562 469.195312 244.351562 490.050781 L 244.351562 603.449219 C 244.351562 608.65625 248.59375 612.898438 253.800781 612.898438 C 259.003906 612.898438 263.25 608.65625 263.25 603.449219 C 263.25 593.039062 271.738281 584.550781 282.148438 584.550781 L 395.550781 584.550781 C 416.40625 584.550781 433.351562 567.605469 433.351562 546.75 L 527.851562 546.75 C 538.257812 546.75 546.75 555.238281 546.75 565.648438 C 546.75 570.855469 550.996094 575.101562 556.199219 575.101562 C 561.40625 575.101562 565.648438 570.855469 565.648438 565.648438 L 565.648438 452.25 C 565.648438 434.679688 553.542969 420.023438 537.300781 415.777344 L 537.300781 395.550781 Z M 641.25 669.601562 L 168.75 669.601562 C 156.421875 669.601562 145.898438 661.699219 142.023438 650.699219 L 667.976562 650.699219 C 664.0625 661.699219 653.578125 669.601562 641.25 669.601562 Z M 395.550781 395.550781 L 395.550781 419.691406 C 384.292969 426.261719 376.648438 438.332031 376.648438 452.25 L 319.949219 452.25 L 319.949219 395.550781 Z M 423.898438 527.851562 L 414.449219 527.851562 C 404.039062 527.851562 395.550781 519.359375 395.550781 508.949219 L 395.550781 452.25 C 395.550781 441.839844 404.039062 433.351562 414.449219 433.351562 L 527.851562 433.351562 C 538.257812 433.351562 546.75 441.839844 546.75 452.25 L 546.75 532.90625 C 541.175781 529.695312 534.714844 527.851562 527.851562 527.851562 Z M 376.648438 471.148438 L 376.648438 508.949219 C 376.648438 529.804688 393.59375 546.75 414.449219 546.75 C 414.449219 557.160156 405.960938 565.648438 395.550781 565.648438 L 282.148438 565.648438 C 275.285156 565.648438 268.824219 567.496094 263.25 570.707031 L 263.25 490.050781 C 263.25 479.640625 271.738281 471.148438 282.148438 471.148438 Z M 518.398438 395.550781 L 518.398438 414.449219 L 414.449219 414.449219 L 414.449219 395.550781 Z M 159.300781 301.050781 C 148.890625 301.050781 140.398438 292.558594 140.398438 282.148438 L 140.398438 187.648438 C 140.398438 177.242188 148.890625 168.75 159.300781 168.75 L 253.800781 168.75 C 264.210938 168.75 272.699219 177.242188 272.699219 187.648438 L 272.699219 282.148438 C 272.699219 292.558594 264.210938 301.050781 253.800781 301.050781 L 225.449219 301.050781 L 225.449219 244.351562 L 253.800781 244.351562 L 253.800781 225.449219 L 225.449219 225.449219 C 225.449219 215.039062 233.941406 206.550781 244.351562 206.550781 L 253.800781 206.550781 L 253.800781 187.648438 L 244.351562 187.648438 C 223.492188 187.648438 206.550781 204.59375 206.550781 225.449219 L 187.648438 225.449219 L 187.648438 244.351562 L 206.550781 244.351562 L 206.550781 301.050781 Z M 357.75 272.699219 C 347.339844 272.699219 338.851562 264.210938 338.851562 253.800781 L 338.851562 159.300781 C 338.851562 148.890625 347.339844 140.398438 357.75 140.398438 L 452.25 140.398438 C 462.660156 140.398438 471.148438 148.890625 471.148438 159.300781 L 471.148438 253.800781 C 471.148438 264.210938 462.660156 272.699219 452.25 272.699219 Z M 537.300781 272.699219 L 537.300781 178.199219 C 537.300781 167.789062 545.789062 159.300781 556.199219 159.300781 L 650.699219 159.300781 C 661.109375 159.300781 669.601562 167.789062 669.601562 178.199219 L 669.601562 272.699219 C 669.601562 283.109375 661.109375 291.601562 650.699219 291.601562 L 556.199219 291.601562 C 545.789062 291.601562 537.300781 283.109375 537.300781 272.699219 Z M 546.75 357.75 L 584.550781 357.75 C 600.203125 357.75 612.898438 345.050781 612.898438 329.398438 L 612.898438 310.5 L 650.699219 310.5 C 671.554688 310.5 688.5 293.554688 688.5 272.699219 L 688.5 178.199219 C 688.5 157.34375 671.554688 140.398438 650.699219 140.398438 L 556.199219 140.398438 C 535.34375 140.398438 518.398438 157.34375 518.398438 178.199219 L 518.398438 272.699219 C 518.398438 293.554688 535.34375 310.5 556.199219 310.5 L 594 310.5 L 594 329.398438 C 594 334.605469 589.753906 338.851562 584.550781 338.851562 L 546.75 338.851562 C 531.097656 338.851562 518.398438 351.546875 518.398438 367.199219 L 518.398438 376.648438 L 414.449219 376.648438 L 414.449219 291.601562 L 452.25 291.601562 C 473.105469 291.601562 490.050781 274.65625 490.050781 253.800781 L 490.050781 159.300781 C 490.050781 138.445312 473.105469 121.5 452.25 121.5 L 357.75 121.5 C 336.894531 121.5 319.949219 138.445312 319.949219 159.300781 L 319.949219 253.800781 C 319.949219 274.65625 336.894531 291.601562 357.75 291.601562 L 395.550781 291.601562 L 395.550781 376.648438 L 319.949219 376.648438 L 319.949219 367.199219 C 319.949219 351.546875 307.25 338.851562 291.601562 338.851562 L 197.101562 338.851562 C 191.894531 338.851562 187.648438 334.605469 187.648438 329.398438 L 187.648438 319.949219 L 253.800781 319.949219 C 274.65625 319.949219 291.601562 303.007812 291.601562 282.148438 L 291.601562 187.648438 C 291.601562 166.792969 274.65625 149.851562 253.800781 149.851562 L 159.300781 149.851562 C 138.445312 149.851562 121.5 166.792969 121.5 187.648438 L 121.5 282.148438 C 121.5 303.007812 138.445312 319.949219 159.300781 319.949219 L 168.75 319.949219 L 168.75 329.398438 C 168.75 345.050781 181.449219 357.75 197.101562 357.75 L 291.601562 357.75 C 296.804688 357.75 301.050781 361.996094 301.050781 367.199219 L 301.050781 376.648438 L 197.101562 376.648438 C 181.449219 376.648438 168.75 389.347656 168.75 405 L 168.75 631.800781 L 130.949219 631.800781 C 125.746094 631.800781 121.5 636.046875 121.5 641.25 C 121.5 667.3125 142.6875 688.5 168.75 688.5 L 641.25 688.5 C 667.3125 688.5 688.5 667.3125 688.5 641.25 C 688.5 636.046875 684.253906 631.800781 679.050781 631.800781 L 641.25 631.800781 L 641.25 405 C 641.25 389.347656 628.550781 376.648438 612.898438 376.648438 L 537.300781 376.648438 L 537.300781 367.199219 C 537.300781 361.996094 541.546875 357.75 546.75 357.75 " fill-opacity="1" fill-rule="nonzero"/></g><path fill="rgb(93.328857%, 52.549744%, 54.899597%)" d="M 319.949219 508.949219 L 301.050781 508.949219 L 301.050781 527.851562 L 319.949219 527.851562 L 319.949219 508.949219 " fill-opacity="1" fill-rule="nonzero"/><path fill="rgb(93.328857%, 52.549744%, 54.899597%)" d="M 357.75 508.949219 L 338.851562 508.949219 L 338.851562 527.851562 L 357.75 527.851562 L 357.75 508.949219 " fill-opacity="1" fill-rule="nonzero"/><path fill="rgb(93.328857%, 52.549744%, 54.899597%)" d="M 452.25 490.050781 L 471.148438 490.050781 L 471.148438 471.148438 L 452.25 471.148438 L 452.25 490.050781 " fill-opacity="1" fill-rule="nonzero"/><path fill="rgb(93.328857%, 52.549744%, 54.899597%)" d="M 490.050781 490.050781 L 508.949219 490.050781 L 508.949219 471.148438 L 490.050781 471.148438 L 490.050781 490.050781 " fill-opacity="1" fill-rule="nonzero"/></svg>